<svg width="30" height="30" viewBox="0 0 30 30" fill="none" xmlns="http://www.w3.org/2000/svg">
<rect width="30" height="30" rx="8" fill="#DCFFF8"/>
<path d="M18.5805 12.4221L17.4172 11.26C17.3352 11.1775 17.2377 11.1121 17.1303 11.0675C17.0229 11.0229 16.9077 11 16.7914 11C16.5544 11 16.3316 11.0928 16.1645 11.26L14.9128 12.5117C14.8304 12.5937 14.765 12.6912 14.7204 12.7986C14.6758 12.906 14.6528 13.0212 14.6528 13.1375C14.6528 13.3745 14.7457 13.5973 14.9128 13.7644L15.8281 14.6797C15.6138 15.152 15.316 15.5816 14.9488 15.9478C14.5826 16.3158 14.1531 16.6148 13.6808 16.8303L12.7655 15.915C12.6834 15.8326 12.5859 15.7672 12.4785 15.7226C12.3711 15.678 12.2559 15.6551 12.1397 15.6551C11.9026 15.6551 11.6798 15.7479 11.5127 15.915L10.2599 17.1657C10.1774 17.2479 10.112 17.3456 10.0674 17.4532C10.0228 17.5608 9.99987 17.6761 10 17.7926C10 18.0296 10.0928 18.2524 10.2599 18.4195L11.421 19.5806C11.6875 19.8482 12.0556 20 12.4335 20C12.5132 20 12.5896 19.9934 12.665 19.9803C14.1373 19.7379 15.5976 18.9547 16.7761 17.7773C17.9535 16.601 18.7355 15.1417 18.9813 13.665C19.0556 13.214 18.9059 12.7498 18.5805 12.4221Z" fill="#04AC8B"/>
</svg>
