<svg width="30" height="30" viewBox="0 0 30 30" fill="none" xmlns="http://www.w3.org/2000/svg">
<rect width="30" height="30" rx="8" fill="#DCFFF8"/>
<path d="M9.47388 14.1585V17.2698C9.47388 17.8195 9.69222 18.3466 10.0809 18.7352C10.4695 19.1239 10.9966 19.3422 11.5462 19.3422H18.4541C19.0038 19.3422 19.5309 19.1239 19.9195 18.7352C20.3082 18.3466 20.5265 17.8195 20.5265 17.2698V14.1585L15.2834 16.5183C15.1944 16.5583 15.0978 16.579 15.0002 16.579C14.9026 16.579 14.806 16.5583 14.717 16.5183L9.47388 14.1585ZM9.525 12.6664L15.0002 15.1312L20.4754 12.6664C20.3714 12.2081 20.1147 11.7988 19.7474 11.5056C19.3801 11.2123 18.9241 11.0527 18.4541 11.0527H11.5462C11.0763 11.0527 10.6203 11.2123 10.253 11.5056C9.88572 11.7988 9.62901 12.2081 9.525 12.6664Z" fill="#04AC8B"/>
</svg>
