<svg width="200" height="200" viewBox="0 0 200 200" fill="none" xmlns="http://www.w3.org/2000/svg">
<rect width="200" height="200" fill="#04AC8B"/>
<path d="M105.975 131.919H89.7365V129.338H89.5538C85.5648 131.021 81.2757 131.875 76.9466 131.851H60.7082V67.285H76.9466C81.2333 67.2649 85.4782 68.1279 89.4167 69.8201C89.5273 69.856 89.6342 69.9018 89.7365 69.9571V67.285H105.975C108.616 67.28 111.247 67.6022 113.809 68.2442C112.987 67.2621 112.096 66.3029 111.182 65.3893C106.727 60.9453 101.473 57.3811 95.6975 54.8834C89.7813 52.3168 83.3955 51.0101 76.9466 51.0465H44.6067V148.203H76.9466C83.4254 148.244 89.842 146.938 95.7888 144.366C101.566 141.893 106.815 138.334 111.251 133.883C112.164 132.97 113.009 132.011 113.832 131.028C111.262 131.667 108.623 131.981 105.975 131.965" fill="#1C2A33"/>
<path d="M150.716 80.8284C145.691 69.163 136.391 59.8633 124.725 54.8377C118.809 52.2711 112.424 50.9643 105.975 51.0007H73.6348V148.158H105.975C112.452 148.187 118.867 146.881 124.817 144.321C130.594 141.847 135.843 138.289 140.279 133.838C144.69 129.361 148.229 124.102 150.716 118.33C153.248 112.403 154.553 106.024 154.553 99.5792C154.553 93.134 153.248 86.7555 150.716 80.8284ZM135.802 112.049C134.188 115.898 131.864 119.407 128.951 122.395C126.023 125.39 122.529 127.773 118.673 129.407C117.138 130.068 115.549 130.596 113.923 130.983C111.353 131.621 108.714 131.936 106.066 131.919H89.8276V67.2849H106.066C110.35 67.2737 114.591 68.1283 118.536 69.7972C122.399 71.4551 125.911 73.8348 128.882 76.8088C131.869 79.7781 134.25 83.2997 135.894 87.1776C137.551 91.1221 138.405 95.3577 138.405 99.6363C138.405 103.915 137.551 108.15 135.894 112.095" fill="white"/>
</svg>
