<svg width="224" height="91" viewBox="0 0 224 91" fill="none" xmlns="http://www.w3.org/2000/svg">
<g clip-path="url(#clip0_199_4)">
<path d="M30.6367 36.1628H11.3655L7.79717 43.4034H0L20.9666 0.0722656L41.9431 43.4034H34.1459L30.6367 36.1628ZM14.8058 28.9732H27.1373L20.9666 16.2438L14.8058 28.9732Z" fill="#1C2A33"/>
<path d="M72.6585 36.1523H65.6499V35.0015H65.571C63.8494 35.7516 61.9982 36.1327 60.1298 36.1217H53.1212V7.33277H60.1298C61.9799 7.32385 63.812 7.70863 65.5119 8.46314C65.5596 8.47915 65.6058 8.4996 65.6499 8.52424V7.33277H72.6585C73.7983 7.33054 74.934 7.47421 76.0396 7.76048C75.6847 7.32258 75.3003 6.89487 74.906 6.48753C72.983 4.50598 70.7156 2.91675 68.2227 1.8031C65.6692 0.65867 62.9131 0.0760181 60.1298 0.092249H46.1718V43.4131H60.1298C62.926 43.4315 65.6954 42.8489 68.2621 41.7023C70.7555 40.5995 73.0209 39.0128 74.9355 37.0281C75.3298 36.6207 75.6946 36.193 76.0494 35.7551C74.9404 36.0397 73.8012 36.18 72.6585 36.1726" fill="#04AC8B"/>
<path d="M91.9693 13.3715C89.8002 8.17003 85.7864 4.02345 80.7516 1.78259C78.1981 0.638162 75.442 0.0555102 72.6587 0.0717411H58.7007V43.3926H72.6587C75.4545 43.406 78.2229 42.8236 80.791 41.6818C83.2844 40.579 85.5498 38.9923 87.4644 37.0076C89.3682 35.0113 90.8959 32.6665 91.9693 30.0929C93.062 27.4501 93.6253 24.606 93.6253 21.7322C93.6253 18.8584 93.062 16.0143 91.9693 13.3715ZM85.5324 27.2924C84.8358 29.0083 83.8326 30.5733 82.5752 31.9056C81.3115 33.2408 79.8037 34.3035 78.1394 35.0319C77.4769 35.3269 76.7908 35.562 76.089 35.7346C74.98 36.0192 73.8408 36.1595 72.6981 36.1521H65.6895V7.33263H72.6981C74.5469 7.32763 76.3776 7.70866 78.0802 8.45283C79.7476 9.19205 81.2632 10.2531 82.5456 11.5792C83.8348 12.9032 84.8626 14.4734 85.5718 16.2025C86.2873 17.9613 86.6558 19.8499 86.6558 21.7576C86.6558 23.6654 86.2873 25.554 85.5718 27.3128" fill="#1C2A33"/>
<path d="M118.89 0.0717409C121.683 0.0499422 124.451 0.621894 127.022 1.75204C129.513 2.8638 131.778 4.45333 133.695 6.43647L128.767 11.5283C127.493 10.1609 125.96 9.07843 124.265 8.34796C122.569 7.61749 120.746 7.25456 118.909 7.28171C117.041 7.27071 115.19 7.65181 113.468 8.40191C111.814 9.11817 110.309 10.1552 109.032 11.457C107.758 12.7778 106.732 14.3317 106.006 16.0396C105.274 17.81 104.897 19.7153 104.897 21.6405C104.897 23.5658 105.274 25.4711 106.006 27.2415C106.714 28.9451 107.716 30.5014 108.963 31.8343C110.232 33.1454 111.74 34.1837 113.399 34.8894C115.13 35.6435 116.992 36.0247 118.87 36.0096C120.7 36.0317 122.516 35.6735 124.209 34.9563C125.903 34.239 127.439 33.1773 128.727 31.8343L133.656 36.9261C131.741 38.9125 129.476 40.5025 126.983 41.6105C124.405 42.7362 121.634 43.3161 118.836 43.3161C116.037 43.3161 113.266 42.7362 110.688 41.6105C108.203 40.5013 105.94 38.923 104.015 36.9566C102.096 34.9867 100.557 32.6573 99.4806 30.0929C98.3879 27.4429 97.8247 24.5922 97.8247 21.7118C97.8247 18.8314 98.3879 15.9807 99.4806 13.3308C101.637 8.1167 105.649 3.95722 110.688 1.7113C113.265 0.563729 116.044 -0.0188292 118.85 0.000464005" fill="#1C2A33"/>
<path d="M4.22026 86.3288C1.40675 86.3288 0 85.1117 0 82.6774C0 81.5602 0.333111 80.6428 0.999333 79.9254C1.74755 79.1259 2.80582 78.7262 4.17414 78.7262C5.40921 78.7262 6.50591 78.9081 7.46425 79.272V84.6914H9.00168V86.3288H4.22026ZM5.45021 80.648C5.05047 80.4584 4.55081 80.3635 3.95121 80.3635C3.37211 80.3635 2.91344 80.5635 2.5752 80.9632C2.24209 81.3527 2.07554 81.86 2.07554 82.4852C2.07554 83.956 2.86475 84.6914 4.44319 84.6914H5.45021V80.648ZM5.2734 77.7345C4.98129 77.7345 4.7353 77.6295 4.53543 77.4194C4.33557 77.2144 4.23563 76.9633 4.23563 76.666C4.23563 76.3688 4.33557 76.1151 4.53543 75.905C4.74042 75.6949 4.98641 75.5898 5.2734 75.5898C5.56551 75.5898 5.8115 75.6949 6.01137 75.905C6.21124 76.11 6.31117 76.3637 6.31117 76.666C6.31117 76.9581 6.21124 77.2092 6.01137 77.4194C5.8115 77.6295 5.56551 77.7345 5.2734 77.7345ZM2.65976 77.7345C2.36765 77.7345 2.12166 77.6295 1.92179 77.4194C1.72193 77.2144 1.62199 76.9633 1.62199 76.666C1.62199 76.3688 1.72193 76.1151 1.92179 75.905C2.12678 75.6949 2.37277 75.5898 2.65976 75.5898C2.957 75.5898 3.20811 75.6949 3.41311 75.905C3.61297 76.11 3.71291 76.3637 3.71291 76.666C3.71291 76.9581 3.61297 77.2092 3.41311 77.4194C3.20811 77.6295 2.957 77.7345 2.65976 77.7345Z" fill="#1C2A33"/>
<path d="M8.77112 84.6915H13.4064V86.3289H8.77112V84.6915Z" fill="#1C2A33"/>
<path d="M13.2296 84.6915H15.4358V78.9261H17.5114V84.6915H19.6561V86.3289H13.2296V84.6915ZM15.6203 88.6889C15.6203 88.9861 15.5204 89.2372 15.3205 89.4422C15.1155 89.6523 14.8644 89.7574 14.5672 89.7574C14.2751 89.7574 14.0291 89.6549 13.8292 89.4499C13.6294 89.2449 13.5294 88.9912 13.5294 88.6889C13.5294 88.3967 13.6294 88.1456 13.8292 87.9355C14.0342 87.7254 14.2802 87.6203 14.5672 87.6203C14.8644 87.6203 15.1155 87.7228 15.3205 87.9278C15.5204 88.1379 15.6203 88.3916 15.6203 88.6889ZM18.2186 88.6889C18.2186 88.981 18.1187 89.2321 17.9188 89.4422C17.7138 89.6523 17.4678 89.7574 17.1808 89.7574C16.8887 89.7574 16.6427 89.6549 16.4429 89.4499C16.243 89.2449 16.1431 88.9912 16.1431 88.6889C16.1431 88.3967 16.243 88.1456 16.4429 87.9355C16.6479 87.7254 16.8938 87.6203 17.1808 87.6203C17.4729 87.6203 17.7189 87.7228 17.9188 87.9278C18.1187 88.1379 18.2186 88.3916 18.2186 88.6889Z" fill="#1C2A33"/>
<path d="M19.4102 84.6915H24.0456V86.3289H19.4102V84.6915Z" fill="#1C2A33"/>
<path d="M23.8687 84.6915H28.504V86.3289H23.8687V84.6915Z" fill="#1C2A33"/>
<path d="M29.2265 76.5047C29.616 76.5047 29.9081 76.5252 30.1029 76.5662C29.9081 76.4688 29.8108 76.2638 29.8108 75.9512C29.8108 75.4592 29.9824 75.0569 30.3258 74.7443C30.7307 74.3753 31.3174 74.1908 32.0862 74.1908C32.3424 74.1908 32.6525 74.2165 33.0163 74.2677L32.8319 75.4515C32.5706 75.4003 32.3065 75.3747 32.04 75.3747C31.5378 75.3747 31.2867 75.5515 31.2867 75.9051C31.2867 76.3048 31.648 76.5047 32.3706 76.5047H33.27V77.6885H29.2265V76.5047ZM28.3271 84.6915H30.5334V78.9261H32.6089V86.3289H28.3271V84.6915Z" fill="#1C2A33"/>
<path d="M35.1073 75.2286H37.1829V84.6915H38.7587V86.3289H35.1073V75.2286Z" fill="#1C2A33"/>
<path d="M38.5204 84.6915H43.1558V86.3289H38.5204V84.6915Z" fill="#1C2A33"/>
<path d="M42.979 84.6915H47.6144V86.3289H42.979V84.6915Z" fill="#1C2A33"/>
<path d="M53.3951 86.3289C51.6988 86.3289 50.5227 85.9189 49.8667 85.0989C49.549 85.9189 48.7162 86.3289 47.3684 86.3289H47.1301V84.6915C47.745 84.6915 48.1986 84.5403 48.4907 84.238C48.8136 83.9049 48.975 83.3411 48.975 82.5468C48.975 81.4808 49.3132 80.5943 49.9897 79.887C50.7379 79.1132 51.7629 78.7263 53.0646 78.7263C55.4373 78.7263 56.6237 79.9332 56.6237 82.3469V84.6915H57.9459V86.3289H53.3951ZM54.5943 82.6006C54.5943 81.1093 54.0331 80.3636 52.9108 80.3636C52.3317 80.3636 51.8705 80.5635 51.5271 80.9632C51.1991 81.3527 51.0351 81.8601 51.0351 82.4853C51.0351 83.9561 51.8218 84.6915 53.3951 84.6915H54.5943V82.6006Z" fill="#1C2A33"/>
<path d="M57.7076 84.6915H62.343V86.3289H57.7076V84.6915Z" fill="#1C2A33"/>
<path d="M62.1663 84.6915H66.8016V86.3289H62.1663V84.6915Z" fill="#1C2A33"/>
<path d="M69.8688 77.604C69.5665 77.604 69.3102 77.5015 69.1001 77.2965C68.89 77.0863 68.7849 76.8275 68.7849 76.5201C68.7849 76.2228 68.89 75.9666 69.1001 75.7513C69.3153 75.5412 69.5716 75.4362 69.8688 75.4362C70.1661 75.4362 70.4223 75.5412 70.6375 75.7513C70.8477 75.9666 70.9527 76.2228 70.9527 76.5201C70.9527 76.8173 70.8477 77.0735 70.6375 77.2888C70.4223 77.4989 70.1661 77.604 69.8688 77.604ZM66.6248 84.6915H68.8311V78.9261H70.9066V86.3289H66.6248V84.6915Z" fill="#1C2A33"/>
<path d="M76.5258 83.5077H74.4195L72.1672 75.4054L74.2274 75.121L76.5258 83.5077ZM72.8129 86.3289V84.6915H77.6789V75.2286H79.7544V86.3289H72.8129ZM73.7584 89.3653C74.1325 89.3653 74.4093 89.3858 74.5887 89.4268C74.4144 89.2936 74.3273 89.0963 74.3273 88.8349C74.3273 88.4147 74.5041 88.0662 74.8577 87.7895C75.2574 87.4768 75.8083 87.3205 76.5104 87.3205C76.9102 87.3205 77.2202 87.3513 77.4406 87.4128L77.2561 88.489C76.8871 88.4326 76.6232 88.4044 76.4643 88.4044C75.9928 88.4044 75.7571 88.5582 75.7571 88.8657C75.7571 89.1988 76.0928 89.3653 76.7641 89.3653H77.725V90.4723H73.7584V89.3653Z" fill="#1C2A33"/>
<path d="M82.4142 75.2286H84.4897V86.3289H82.4142V75.2286Z" fill="#1C2A33"/>
<path d="M95.467 86.3288C93.412 86.3288 91.913 85.9111 90.97 85.0758C90.1142 84.3224 89.6863 83.1873 89.6863 81.6704C89.6863 80.7684 89.8221 79.9433 90.0937 79.1951L92.3153 78.8338C91.9565 79.6179 91.7772 80.484 91.7772 81.4321C91.7772 82.5749 92.0616 83.3949 92.6304 83.892C93.23 84.4249 94.2473 84.6914 95.6823 84.6914H97.827V78.926H99.9025V86.3288H95.467ZM96.5355 77.7345C96.2434 77.7345 95.9974 77.6295 95.7976 77.4194C95.5977 77.2144 95.4978 76.9633 95.4978 76.666C95.4978 76.3688 95.5977 76.1151 95.7976 75.905C95.9974 75.6949 96.2434 75.5898 96.5355 75.5898C96.8276 75.5898 97.0736 75.6949 97.2735 75.905C97.4734 76.11 97.5733 76.3637 97.5733 76.666C97.5733 76.9581 97.4734 77.2092 97.2735 77.4194C97.0685 77.6295 96.8225 77.7345 96.5355 77.7345ZM93.9219 77.7345C93.6298 77.7345 93.3838 77.6295 93.1839 77.4194C92.9841 77.2144 92.8841 76.9633 92.8841 76.666C92.8841 76.3688 92.9841 76.1151 93.1839 75.905C93.3838 75.6949 93.6298 75.5898 93.9219 75.5898C94.2191 75.5898 94.4702 75.6949 94.6752 75.905C94.8751 76.11 94.975 76.3637 94.975 76.666C94.975 76.9581 94.8751 77.2092 94.6752 77.4194C94.4702 77.6295 94.2191 77.7345 93.9219 77.7345Z" fill="#1C2A33"/>
<path d="M102.416 75.2286H104.492V86.3289H102.416V75.2286Z" fill="#1C2A33"/>
<path d="M106.106 90.3262C105.645 90.3262 105.204 90.275 104.784 90.1725L104.938 88.5197C105.373 88.6427 105.799 88.7042 106.214 88.7042C106.783 88.7042 107.2 88.5505 107.467 88.243C107.769 87.8945 107.92 87.3154 107.92 86.5057V78.9261H109.996V86.3904C109.996 89.0143 108.699 90.3262 106.106 90.3262Z" fill="#1C2A33"/>
<path d="M112.502 75.2286H114.577V84.6915H116.153V86.3289H112.502V75.2286Z" fill="#1C2A33"/>
<path d="M115.915 84.6915H120.55V86.3289H115.915V84.6915Z" fill="#1C2A33"/>
<path d="M120.373 84.6915H125.009V86.3289H120.373V84.6915Z" fill="#1C2A33"/>
<path d="M124.832 84.6915H129.467V86.3289H124.832V84.6915Z" fill="#1C2A33"/>
<path d="M129.291 84.6915H130.075C130.597 84.6915 130.961 84.5583 131.166 84.2918C131.387 84.0099 131.497 83.4923 131.497 82.739V79.8717H133.572V82.7851C133.572 83.5436 133.636 84.0586 133.765 84.3302C133.913 84.6531 134.21 84.8145 134.656 84.8145C135.497 84.8145 135.917 84.1432 135.917 82.8005V79.2413H137.916V83.1925C137.916 83.8075 138.044 84.2124 138.3 84.4071C138.546 84.5967 139.038 84.6915 139.776 84.6915H140.183C140.26 84.1022 140.299 83.4718 140.299 82.8005C140.299 81.3502 140.145 79.9434 139.837 78.5802L141.867 78.3035C142.205 79.7128 142.374 81.1657 142.374 82.6621C142.374 83.2463 142.349 83.9228 142.297 84.6915H143.835V86.3289H139.538C138.682 86.3289 138.046 86.2571 137.631 86.1137C137.185 85.9548 136.85 85.6652 136.624 85.245C136.25 86.0496 135.458 86.4519 134.249 86.4519C133.126 86.4519 132.43 86.0445 132.158 85.2296C131.835 85.9625 131.136 86.3289 130.059 86.3289H129.291V84.6915ZM138.154 77.7346C137.857 77.7346 137.606 77.6296 137.401 77.4195C137.201 77.2145 137.101 76.9634 137.101 76.6661C137.101 76.3689 137.201 76.1152 137.401 75.9051C137.606 75.695 137.857 75.5899 138.154 75.5899C138.446 75.5899 138.692 75.695 138.892 75.9051C139.092 76.1101 139.192 76.3638 139.192 76.6661C139.192 76.9582 139.092 77.2093 138.892 77.4195C138.687 77.6296 138.441 77.7346 138.154 77.7346ZM135.54 77.7346C135.248 77.7346 135.002 77.6296 134.802 77.4195C134.602 77.2145 134.502 76.9634 134.502 76.6661C134.502 76.3689 134.602 76.1152 134.802 75.9051C135.007 75.695 135.253 75.5899 135.54 75.5899C135.832 75.5899 136.078 75.695 136.278 75.9051C136.478 76.1101 136.578 76.3638 136.578 76.6661C136.578 76.9582 136.478 77.2093 136.278 77.4195C136.078 77.6296 135.832 77.7346 135.54 77.7346ZM136.832 75.4977C136.565 75.4977 136.337 75.4003 136.148 75.2056C135.963 75.0159 135.871 74.7828 135.871 74.506C135.871 74.2293 135.963 73.9961 136.148 73.8065C136.337 73.6117 136.565 73.5144 136.832 73.5144C137.108 73.5144 137.339 73.6117 137.524 73.8065C137.713 73.9961 137.808 74.2293 137.808 74.506C137.808 74.7828 137.713 75.0159 137.524 75.2056C137.339 75.4003 137.108 75.4977 136.832 75.4977Z" fill="#1C2A33"/>
<path d="M143.604 84.6915H148.239V86.3289H143.604V84.6915Z" fill="#1C2A33"/>
<path d="M148.063 84.6915H152.698V86.3289H148.063V84.6915Z" fill="#1C2A33"/>
<path d="M152.521 84.6914H154.727V78.926H156.803V84.6914H158.202V86.3288H152.521V84.6914ZM154.159 77.7345C153.866 77.7345 153.62 77.6295 153.421 77.4194C153.221 77.2144 153.121 76.9633 153.121 76.666C153.121 76.3688 153.221 76.1151 153.421 75.905C153.626 75.6949 153.872 75.5898 154.159 75.5898C154.456 75.5898 154.707 75.6949 154.912 75.905C155.112 76.11 155.212 76.3637 155.212 76.666C155.212 76.9581 155.112 77.2092 154.912 77.4194C154.707 77.6295 154.456 77.7345 154.159 77.7345ZM156.772 77.7345C156.48 77.7345 156.234 77.6295 156.034 77.4194C155.834 77.2144 155.734 76.9633 155.734 76.666C155.734 76.3688 155.834 76.1151 156.034 75.905C156.239 75.6949 156.485 75.5898 156.772 75.5898C157.064 75.5898 157.31 75.6949 157.51 75.905C157.71 76.11 157.81 76.3637 157.81 76.666C157.81 76.9581 157.71 77.2092 157.51 77.4194C157.305 77.6295 157.059 77.7345 156.772 77.7345Z" fill="#1C2A33"/>
<path d="M157.964 84.6915H162.599V86.3289H157.964V84.6915Z" fill="#1C2A33"/>
<path d="M162.422 84.6915H167.058V86.3289H162.422V84.6915Z" fill="#1C2A33"/>
<path d="M166.881 84.6915H167.665C168.188 84.6915 168.552 84.5583 168.757 84.2918C168.977 84.0099 169.087 83.4923 169.087 82.739V79.8717H171.163V82.7851C171.163 83.5436 171.227 84.0586 171.355 84.3302C171.503 84.6531 171.801 84.8145 172.247 84.8145C173.087 84.8145 173.507 84.1432 173.507 82.8005V79.2413H175.506V83.1925C175.506 83.8075 175.634 84.2124 175.89 84.4071C176.136 84.5967 176.628 84.6915 177.366 84.6915H177.774C177.85 84.1022 177.889 83.4718 177.889 82.8005C177.889 81.3502 177.735 79.9434 177.428 78.5802L179.457 78.3035C179.795 79.7128 179.964 81.1657 179.964 82.6621C179.964 83.9894 179.885 85.2117 179.726 86.3289H177.128C176.272 86.3289 175.637 86.2571 175.221 86.1137C174.776 85.9548 174.44 85.6652 174.214 85.245C173.84 86.0496 173.049 86.4519 171.839 86.4519C170.717 86.4519 170.02 86.0445 169.748 85.2296C169.425 85.9625 168.726 86.3289 167.65 86.3289H166.881V84.6915Z" fill="#1C2A33"/>
<path d="M181.11 86.3289V84.6915H185.976V75.2286H188.051V84.6915H189.612V86.3289H181.11ZM184.823 83.5077H182.716L180.464 75.4054L182.524 75.121L184.823 83.5077Z" fill="#1C2A33"/>
<path d="M189.374 84.6915H191.326V75.2286H193.402V86.3289H189.374V84.6915Z" fill="#1C2A33"/>
<path d="M202.565 78.6648C202.959 78.6648 203.254 78.6853 203.449 78.7263C203.249 78.6238 203.149 78.4188 203.149 78.1113C203.149 77.6193 203.323 77.2145 203.672 76.8967C204.077 76.5329 204.663 76.3509 205.432 76.3509C205.683 76.3509 205.993 76.3766 206.362 76.4278L206.17 77.604C205.909 77.5527 205.647 77.5271 205.386 77.5271C204.879 77.5271 204.625 77.7064 204.625 78.0652C204.625 78.4649 204.989 78.6648 205.716 78.6648H206.608V79.8409H202.565V78.6648ZM204.379 86.3289C202.324 86.3289 200.825 85.9112 199.882 85.0759C199.026 84.3225 198.598 83.1874 198.598 81.6705C198.598 80.7685 198.734 79.9434 199.006 79.1952L201.227 78.8339C200.868 79.618 200.689 80.4841 200.689 81.4322C200.689 82.575 200.973 83.395 201.542 83.8921C202.142 84.425 203.159 84.6915 204.594 84.6915H207.884V75.2286H209.967V86.3289H204.379Z" fill="#1C2A33"/>
<path d="M211.805 84.6916H216.479C216.386 82.3598 215.149 80.8916 212.766 80.2869L213.265 78.5496C215.028 79.0159 216.33 79.7641 217.17 80.7942C218.062 81.8909 218.508 83.3899 218.508 85.2912V86.329H211.805V84.6916Z" fill="#1C2A33"/>
<path d="M220.022 75.2286H222.098V86.3289H220.022V75.2286ZM218.37 73.2607L220.022 72.0307C220.463 72.4407 220.958 72.6457 221.506 72.6457C222.075 72.6457 222.621 72.4305 223.143 72V73.5144C222.651 73.9141 222.072 74.114 221.406 74.114C220.837 74.114 220.371 73.9449 220.007 73.6066L219.092 74.2523L218.37 73.2607Z" fill="#1C2A33"/>
<path d="M8.18921 69.6432L7.31503 66.92H2.86024L1.9581 69.6432H1L4.63656 58.9517H5.62963L9.2522 69.6432H8.18921ZM5.52473 61.4814C5.33357 60.9038 5.19137 60.4293 5.09813 60.058H5.08414C4.97225 60.4448 4.82772 60.9089 4.65055 61.4505L3.119 66.0923H7.04229L5.52473 61.4814Z" fill="#1C2A33"/>
<path d="M18.5674 64.2123C18.5674 65.9917 18.0546 67.3636 17.0289 68.328C16.0684 69.2358 14.7677 69.6896 13.1265 69.6896C12.8142 69.6896 12.3946 69.6793 11.8677 69.6587C11.4108 69.6432 11.0751 69.638 10.8607 69.6432V58.9517L13.5671 58.8975C16.9006 58.8975 18.5674 60.6691 18.5674 64.2123ZM17.6093 64.2742C17.6093 61.2416 16.2246 59.7253 13.4552 59.7253C13.1662 59.7253 12.6067 59.7408 11.7768 59.7717V68.7381C12.2803 68.8154 12.7722 68.8541 13.2524 68.8541C14.5952 68.8541 15.6442 68.4853 16.3995 67.7478C17.206 66.9587 17.6093 65.8009 17.6093 64.2742Z" fill="#1C2A33"/>
<path d="M28.2882 64.2123C28.2882 65.9917 27.7754 67.3636 26.7497 68.328C25.7893 69.2358 24.4885 69.6896 22.8474 69.6896C22.535 69.6896 22.1154 69.6793 21.5886 69.6587C21.1317 69.6432 20.796 69.638 20.5815 69.6432V58.9517L23.2879 58.8975C26.6215 58.8975 28.2882 60.6691 28.2882 64.2123ZM27.3301 64.2742C27.3301 61.2416 25.9454 59.7253 23.1761 59.7253C22.887 59.7253 22.3275 59.7408 21.4976 59.7717V68.7381C22.0012 68.8154 22.493 68.8541 22.9732 68.8541C24.316 68.8541 25.365 68.4853 26.1203 67.7478C26.9268 66.9587 27.3301 65.8009 27.3301 64.2742Z" fill="#1C2A33"/>
<path d="M37.0719 69.1325C36.2141 69.5451 35.2863 69.7514 34.2886 69.7514C32.8666 69.7514 31.7849 69.2872 31.0436 68.3589C30.3256 67.4563 29.9666 66.1721 29.9666 64.5062C29.9666 62.8042 30.328 61.4607 31.0506 60.4756C31.8572 59.3822 33.0484 58.8354 34.6242 58.8354C35.4261 58.8354 36.1931 58.9567 36.9251 59.1991L36.7572 60.1352C35.9973 59.8412 35.2187 59.6941 34.4214 59.6941C33.2512 59.6941 32.363 60.1557 31.7569 61.0789C31.2208 61.8938 30.9527 62.9795 30.9527 64.3359C30.9527 67.3582 32.1556 68.8694 34.5613 68.8694C35.3865 68.8694 36.1605 68.6682 36.8831 68.2659L37.0719 69.1325Z" fill="#1C2A33"/>
<path d="M45.9955 58.998C45.6552 58.8794 45.2682 58.82 44.8346 58.82C43.7157 58.82 43.1562 59.6117 43.1562 61.1951V61.7676H45.3521V62.5644H43.1562V69.6431H42.254V62.5644H40.6246V61.7676H42.254V61.2338C42.254 59.0779 43.1375 58 44.9045 58C45.3008 58 45.6925 58.0464 46.0794 58.1393L45.9955 58.998Z" fill="#1C2A33"/>
<path d="M52.4854 65.5893C52.4854 66.7755 52.187 67.758 51.5902 68.5368C50.9655 69.3569 50.1449 69.7669 49.1285 69.7669C48.1588 69.7669 47.4082 69.4394 46.8767 68.7844C46.3172 68.0933 46.0375 67.0747 46.0375 65.7285C46.0375 64.5784 46.3265 63.6217 46.9046 62.8584C47.5247 62.0487 48.3476 61.6438 49.3733 61.6438C50.2918 61.6438 51.0168 61.9352 51.5483 62.518C52.173 63.1936 52.4854 64.2174 52.4854 65.5893ZM51.5483 65.6357C51.5483 64.63 51.3571 63.8512 50.9748 63.2994C50.5832 62.732 50.0167 62.4484 49.2754 62.4484C48.6367 62.4484 48.1052 62.7062 47.6809 63.222C47.2054 63.8048 46.9676 64.6145 46.9676 65.6512C46.9676 66.6982 47.1704 67.5079 47.576 68.0804C47.9816 68.658 48.5527 68.9468 49.2894 68.9468C49.9281 68.9468 50.4526 68.6838 50.8629 68.1577C51.3198 67.5646 51.5483 66.7239 51.5483 65.6357Z" fill="#1C2A33"/>
<path d="M57.6676 62.6263C56.0731 62.3426 55.2758 63.6346 55.2758 66.5022V69.6431H54.3737V61.7676H55.2898C55.2898 62.469 55.2269 63.1549 55.101 63.8254L55.136 63.8409C55.5183 62.1956 56.3761 61.4684 57.7095 61.6593L57.6676 62.6263Z" fill="#1C2A33"/>
<path d="M69.941 64.2123C69.941 65.9917 69.4281 67.3636 68.4024 68.328C67.442 69.2358 66.1412 69.6896 64.5001 69.6896C64.1877 69.6896 63.7681 69.6793 63.2413 69.6587C62.7844 69.6432 62.4487 69.638 62.2343 69.6432V58.9517L64.9407 58.8975C68.2742 58.8975 69.941 60.6691 69.941 64.2123ZM68.9829 64.2742C68.9829 61.2416 67.5982 59.7253 64.8288 59.7253C64.5397 59.7253 63.9803 59.7408 63.1504 59.7717V68.7381C63.6539 68.8154 64.1458 68.8541 64.626 68.8541C65.9687 68.8541 67.0177 68.4853 67.773 67.7478C68.5796 66.9587 68.9829 65.8009 68.9829 64.2742Z" fill="#1C2A33"/>
<path d="M77.221 64.7925C77.221 65.071 77.2117 65.3031 77.193 65.4887H72.3676C72.2977 67.7735 73.1136 68.9159 74.8153 68.9159C75.5426 68.9159 76.2116 68.7612 76.8224 68.4517L76.9972 69.295C76.2886 69.6096 75.496 69.7669 74.6195 69.7669C72.4795 69.7669 71.4095 68.4208 71.4095 65.7285C71.4095 64.532 71.6799 63.5572 72.2207 62.8042C72.7849 62.0306 73.5401 61.6438 74.4866 61.6438C75.4051 61.6438 76.1044 61.9584 76.5846 62.5876C77.0089 63.1446 77.221 63.8796 77.221 64.7925ZM76.2629 64.7306C76.2769 64.0188 76.1207 63.4592 75.7943 63.0518C75.468 62.6392 75.0134 62.4329 74.4306 62.4329C73.8945 62.4329 73.4492 62.6315 73.0949 63.0286C72.7312 63.436 72.5028 64.0034 72.4095 64.7306H76.2629Z" fill="#1C2A33"/>
<path d="M81.8996 69.6431H80.9135L78.235 61.7676H79.2631L81.0394 67.299C81.2119 67.8509 81.3424 68.2996 81.431 68.6451H81.445C81.5522 68.248 81.6805 67.8148 81.8297 67.3454L83.6479 61.7676H84.634L81.8996 69.6431Z" fill="#1C2A33"/>
<path d="M91.2077 64.7925C91.2077 65.071 91.1984 65.3031 91.1797 65.4887H86.3543C86.2843 67.7735 87.1002 68.9159 88.802 68.9159C89.5293 68.9159 90.1983 68.7612 90.8091 68.4517L90.9839 69.295C90.2752 69.6096 89.4827 69.7669 88.6061 69.7669C86.4662 69.7669 85.3962 68.4208 85.3962 65.7285C85.3962 64.532 85.6666 63.5572 86.2074 62.8042C86.7715 62.0306 87.5268 61.6438 88.4733 61.6438C89.3917 61.6438 90.0911 61.9584 90.5713 62.5876C90.9956 63.1446 91.2077 63.8796 91.2077 64.7925ZM90.2496 64.7306C90.2636 64.0188 90.1074 63.4592 89.781 63.0518C89.4547 62.6392 89.0001 62.4329 88.4173 62.4329C87.8812 62.4329 87.4359 62.6315 87.0816 63.0286C86.7179 63.436 86.4895 64.0034 86.3962 64.7306H90.2496Z" fill="#1C2A33"/>
<path d="M93.2568 69.6431V58.0774H94.1589V69.6431H93.2568Z" fill="#1C2A33"/>
<path d="M102.628 65.5893C102.628 66.7755 102.33 67.758 101.733 68.5368C101.108 69.3569 100.288 69.7669 99.2712 69.7669C98.3014 69.7669 97.5508 69.4394 97.0193 68.7844C96.4598 68.0933 96.1801 67.0747 96.1801 65.7285C96.1801 64.5784 96.4692 63.6217 97.0473 62.8584C97.6674 62.0487 98.4902 61.6438 99.5159 61.6438C100.434 61.6438 101.159 61.9352 101.691 62.518C102.316 63.1936 102.628 64.2174 102.628 65.5893ZM101.691 65.6357C101.691 64.63 101.5 63.8512 101.117 63.2994C100.726 62.732 100.159 62.4484 99.418 62.4484C98.7793 62.4484 98.2478 62.7062 97.8235 63.222C97.348 63.8048 97.1102 64.6145 97.1102 65.6512C97.1102 66.6982 97.313 67.5079 97.7186 68.0804C98.1243 68.658 98.6954 68.9468 99.432 68.9468C100.071 68.9468 100.595 68.6838 101.006 68.1577C101.462 67.5646 101.691 66.7239 101.691 65.6357Z" fill="#1C2A33"/>
<path d="M110.475 65.3495C110.475 66.7523 110.146 67.838 109.489 68.6064C108.85 69.3491 107.976 69.7205 106.866 69.7205C106.33 69.7205 105.857 69.6895 105.446 69.6276V73.6196H104.544V61.7676H105.46C105.46 62.567 105.418 63.1704 105.334 63.5779L105.362 63.5933C105.801 62.2936 106.626 61.6438 107.838 61.6438C109.596 61.6438 110.475 62.879 110.475 65.3495ZM109.53 65.4423C109.53 63.4463 108.92 62.4484 107.698 62.4484C106.994 62.4484 106.428 62.8378 105.999 63.6165C105.63 64.2819 105.446 65.022 105.446 65.8369V68.707C105.852 68.8669 106.348 68.9468 106.936 68.9468C108.666 68.9468 109.53 67.7787 109.53 65.4423Z" fill="#1C2A33"/>
<path d="M121.468 69.6431V64.5449C121.468 63.8538 121.377 63.3458 121.195 63.0208C120.981 62.6392 120.615 62.4484 120.098 62.4484C119.482 62.4484 118.958 62.7552 118.524 63.369C118.062 64.024 117.832 64.875 117.832 65.922V69.6431H116.929V64.5217C116.929 63.8667 116.848 63.3819 116.685 63.0673C116.47 62.6547 116.095 62.4484 115.559 62.4484C114.925 62.4484 114.393 62.7707 113.964 63.4154C113.526 64.0756 113.307 64.9111 113.307 65.922V69.6431H112.405V61.7676H113.321C113.321 62.4845 113.279 63.0982 113.195 63.6088L113.223 63.6243C113.661 62.304 114.51 61.6438 115.769 61.6438C116.505 61.6438 117.048 61.8965 117.398 62.4019C117.64 62.7527 117.762 63.1498 117.762 63.5933C117.92 63.1085 118.181 62.6908 118.545 62.3401C119.03 61.8759 119.603 61.6438 120.265 61.6438C121.669 61.6438 122.37 62.487 122.37 64.1736V69.6431H121.468Z" fill="#1C2A33"/>
<path d="M130.189 64.7925C130.189 65.071 130.18 65.3031 130.161 65.4887H125.336C125.266 67.7735 126.082 68.9159 127.783 68.9159C128.511 68.9159 129.18 68.7612 129.79 68.4517L129.965 69.295C129.257 69.6096 128.464 69.7669 127.587 69.7669C125.447 69.7669 124.377 68.4208 124.377 65.7285C124.377 64.532 124.648 63.5572 125.189 62.8042C125.753 62.0306 126.508 61.6438 127.455 61.6438C128.373 61.6438 129.072 61.9584 129.553 62.5876C129.977 63.1446 130.189 63.8796 130.189 64.7925ZM129.231 64.7306C129.245 64.0188 129.089 63.4592 128.762 63.0518C128.436 62.6392 127.981 62.4329 127.399 62.4329C126.862 62.4329 126.417 62.6315 126.063 63.0286C125.699 63.436 125.471 64.0034 125.378 64.7306H129.231Z" fill="#1C2A33"/>
<path d="M136.938 69.6431V64.5449C136.938 63.1472 136.455 62.4484 135.49 62.4484C134.819 62.4484 134.268 62.7733 133.84 63.4231C133.411 64.0678 133.196 64.8904 133.196 65.891V69.6431H132.294V61.7676H133.21C133.21 62.4999 133.168 63.1137 133.084 63.6088L133.112 63.6243C133.55 62.304 134.408 61.6438 135.686 61.6438C137.122 61.6438 137.84 62.4819 137.84 64.1581V69.6431H136.938Z" fill="#1C2A33"/>
<path d="M143.819 69.5967C143.39 69.6998 142.936 69.7514 142.455 69.7514C141.784 69.7514 141.315 69.5709 141.05 69.2099C140.803 68.8695 140.679 68.2893 140.679 67.4692V62.5644H139.05V61.7676H140.679V59.1063L141.567 58.8354V61.7676H143.763V62.5644H141.567V66.9817C141.567 67.7296 141.646 68.2325 141.805 68.4904C141.959 68.7431 142.257 68.8694 142.7 68.8694C143.068 68.8694 143.399 68.8255 143.693 68.7379L143.819 69.5967Z" fill="#1C2A33"/>
<path d="M154.967 69.1325C154.109 69.5451 153.181 69.7514 152.183 69.7514C150.761 69.7514 149.68 69.2872 148.938 68.3589C148.22 67.4563 147.861 66.1721 147.861 64.5062C147.861 62.8042 148.223 61.4607 148.945 60.4756C149.752 59.3822 150.943 58.8354 152.519 58.8354C153.321 58.8354 154.088 58.9567 154.82 59.1991L154.652 60.1352C153.892 59.8412 153.113 59.6941 152.316 59.6941C151.146 59.6941 150.258 60.1557 149.652 61.0789C149.115 61.8938 148.847 62.9795 148.847 64.3359C148.847 67.3582 150.05 68.8694 152.456 68.8694C153.281 68.8694 154.055 68.6682 154.778 68.2659L154.967 69.1325Z" fill="#1C2A33"/>
<path d="M162.925 65.5893C162.925 66.7755 162.627 67.758 162.03 68.5368C161.405 69.3569 160.585 69.7669 159.568 69.7669C158.598 69.7669 157.848 69.4394 157.316 68.7844C156.757 68.0933 156.477 67.0747 156.477 65.7285C156.477 64.5784 156.766 63.6217 157.344 62.8584C157.964 62.0487 158.787 61.6438 159.813 61.6438C160.731 61.6438 161.456 61.9352 161.988 62.518C162.613 63.1936 162.925 64.2174 162.925 65.5893ZM161.988 65.6357C161.988 64.63 161.797 63.8512 161.414 63.2994C161.023 62.732 160.456 62.4484 159.715 62.4484C159.076 62.4484 158.545 62.7062 158.121 63.222C157.645 63.8048 157.407 64.6145 157.407 65.6512C157.407 66.6982 157.61 67.5079 158.016 68.0804C158.421 68.658 158.992 68.9468 159.729 68.9468C160.368 68.9468 160.892 68.6838 161.303 68.1577C161.759 67.5646 161.988 66.7239 161.988 65.6357Z" fill="#1C2A33"/>
<path d="M169.457 69.6431V64.5449C169.457 63.1472 168.974 62.4484 168.009 62.4484C167.338 62.4484 166.788 62.7733 166.359 63.4231C165.93 64.0678 165.715 64.8904 165.715 65.891V69.6431H164.813V61.7676H165.729C165.729 62.4999 165.687 63.1137 165.604 63.6088L165.631 63.6243C166.07 62.304 166.928 61.6438 168.205 61.6438C169.641 61.6438 170.359 62.4819 170.359 64.1581V69.6431H169.457Z" fill="#1C2A33"/>
<path d="M177.017 67.33C177.017 68.0262 176.76 68.6013 176.247 69.0551C175.707 69.5296 174.989 69.7669 174.093 69.7669C173.464 69.7669 172.935 69.6998 172.506 69.5657L172.639 68.6142C173.119 68.8153 173.658 68.9159 174.254 68.9159C174.791 68.9159 175.229 68.787 175.569 68.5291C175.914 68.2609 176.087 67.9076 176.087 67.4692C176.087 67.0205 175.898 66.6801 175.52 66.448C175.352 66.3449 174.94 66.1876 174.282 65.9761C173.709 65.7956 173.296 65.5893 173.044 65.3572C172.667 65.0168 172.478 64.5294 172.478 63.895C172.478 63.2194 172.706 62.6805 173.163 62.2782C173.644 61.8552 174.313 61.6438 175.17 61.6438C175.674 61.6438 176.152 61.7005 176.604 61.814L176.485 62.6727C175.996 62.5128 175.515 62.4329 175.045 62.4329C173.944 62.4329 173.394 62.8816 173.394 63.779C173.394 64.2277 173.583 64.5707 173.961 64.8079C174.138 64.9214 174.553 65.0813 175.205 65.2876C175.784 65.4732 176.199 65.677 176.45 65.8987C176.828 66.234 177.017 66.7111 177.017 67.33Z" fill="#1C2A33"/>
<path d="M183.807 69.6431C183.807 68.9107 183.849 68.297 183.933 67.8019L183.905 67.7864C183.467 69.1067 182.607 69.7669 181.325 69.7669C179.893 69.7669 179.178 68.9288 179.178 67.2526V61.7676H180.08V66.8735C180.08 67.5749 180.18 68.0881 180.381 68.413C180.604 68.7792 180.987 68.9623 181.527 68.9623C182.199 68.9623 182.749 68.6374 183.178 67.9875C183.607 67.348 183.821 66.528 183.821 65.5274V61.7676H184.723V69.6431H183.807Z" fill="#1C2A33"/>
<path d="M187.542 69.6431V58.0774H188.444V69.6431H187.542Z" fill="#1C2A33"/>
<path d="M194.479 69.5967C194.05 69.6998 193.596 69.7514 193.116 69.7514C192.444 69.7514 191.976 69.5709 191.71 69.2099C191.463 68.8695 191.339 68.2893 191.339 67.4692V62.5644H189.71V61.7676H191.339V59.1063L192.227 58.8354V61.7676H194.423V62.5644H192.227V66.9817C192.227 67.7296 192.307 68.2325 192.465 68.4904C192.619 68.7431 192.917 68.8694 193.36 68.8694C193.729 68.8694 194.06 68.8255 194.353 68.7379L194.479 69.5967Z" fill="#1C2A33"/>
<path d="M200.193 69.6431C200.193 68.8592 200.221 68.2841 200.277 67.9179L200.249 67.9024C200.067 68.4388 199.759 68.8772 199.326 69.2176C198.859 69.5838 198.326 69.7669 197.724 69.7669C197.165 69.7669 196.705 69.5864 196.346 69.2253C195.978 68.8488 195.794 68.3486 195.794 67.7245C195.794 66.9199 196.165 66.2804 196.906 65.8059C197.68 65.3108 198.771 65.0632 200.179 65.0632V64.6377C200.179 63.8744 200.058 63.3251 199.815 62.9899C199.559 62.6289 199.121 62.4484 198.5 62.4484C197.801 62.4484 197.09 62.6443 196.367 63.0363L196.151 62.2085C196.92 61.832 197.747 61.6438 198.633 61.6438C200.265 61.6438 201.081 62.5567 201.081 64.3824V67.2062C201.081 67.8818 201.09 68.6941 201.109 69.6431H200.193ZM200.179 65.8214C197.866 65.8214 196.71 66.4042 196.71 67.5698C196.71 67.9721 196.822 68.2996 197.046 68.5523C197.279 68.8153 197.582 68.9468 197.955 68.9468C198.594 68.9468 199.13 68.6374 199.563 68.0185C199.974 67.4408 200.179 66.7729 200.179 66.0148V65.8214Z" fill="#1C2A33"/>
<path d="M208.396 69.6431V64.5449C208.396 63.1472 207.914 62.4484 206.948 62.4484C206.277 62.4484 205.727 62.7733 205.298 63.4231C204.869 64.0678 204.655 64.8904 204.655 65.891V69.6431H203.752V61.7676H204.669C204.669 62.4999 204.627 63.1137 204.543 63.6088L204.571 63.6243C205.009 62.304 205.867 61.6438 207.144 61.6438C208.58 61.6438 209.298 62.4819 209.298 64.1581V69.6431H208.396Z" fill="#1C2A33"/>
<path d="M216.578 69.2795C215.935 69.5838 215.194 69.7359 214.354 69.7359C212.322 69.7359 211.305 68.4852 211.305 65.9838C211.305 64.6532 211.592 63.6088 212.166 62.8506C212.753 62.0667 213.578 61.6747 214.641 61.6747C215.373 61.6747 216.005 61.7959 216.536 62.0383L216.334 62.8816C215.709 62.6134 215.098 62.4793 214.501 62.4793C213.797 62.4793 213.245 62.7888 212.844 63.4077C212.457 64.0059 212.263 64.795 212.263 65.775C212.263 67.8586 213.023 68.9004 214.543 68.9004C215.196 68.9004 215.811 68.756 216.39 68.4672L216.578 69.2795Z" fill="#1C2A33"/>
<path d="M220.69 70.4477C220.28 71.6649 219.84 72.5158 219.369 73.0007C218.893 73.4958 218.264 73.7433 217.481 73.7433C217.271 73.7433 217.033 73.7124 216.767 73.6505L216.865 72.7299C217.094 72.8176 217.366 72.8614 217.683 72.8614C218.537 72.8614 219.229 72.111 219.76 70.6101L220.103 69.6431L217.355 61.7676H218.418L220.019 66.6182C220.285 67.4847 220.467 68.0907 220.565 68.4362H220.579C220.663 68.0752 220.9 67.2784 221.292 66.0457L222.67 61.7676H223.656L220.69 70.4477Z" fill="#1C2A33"/>
</g>
<defs>
<clipPath id="clip0_199_4">
<rect width="224" height="91" fill="white"/>
</clipPath>
</defs>
</svg>
