<svg width="225" height="106" viewBox="0 0 225 106" fill="none" xmlns="http://www.w3.org/2000/svg">
<path d="M121.637 36.1628H102.366L98.7972 43.4034H91L111.967 0.0722656L132.943 43.4034H125.146L121.637 36.1628ZM105.806 28.9732H118.137L111.967 16.2438L105.806 28.9732Z" fill="#1C2A33"/>
<path d="M163.659 36.1523H156.65V35.0015H156.571C154.85 35.7516 152.998 36.1327 151.13 36.1217H144.121V7.33277H151.13C152.98 7.32385 154.812 7.70863 156.512 8.46314C156.56 8.47915 156.606 8.4996 156.65 8.52424V7.33277H163.659C164.798 7.33054 165.934 7.47421 167.04 7.76048C166.685 7.32258 166.3 6.89487 165.906 6.48753C163.983 4.50598 161.716 2.91675 159.223 1.8031C156.669 0.65867 153.913 0.0760181 151.13 0.092249H137.172V43.4131H151.13C153.926 43.4315 156.696 42.8489 159.262 41.7023C161.756 40.5995 164.021 39.0128 165.936 37.0281C166.33 36.6207 166.695 36.193 167.05 35.7551C165.94 36.0397 164.801 36.18 163.659 36.1726" fill="#04AC8B"/>
<path d="M182.969 13.3715C180.8 8.17003 176.787 4.02345 171.752 1.78259C169.198 0.638162 166.442 0.0555102 163.659 0.0717411H149.701V43.3926H163.659C166.455 43.406 169.223 42.8236 171.791 41.6818C174.285 40.579 176.55 38.9923 178.465 37.0076C180.368 35.0113 181.896 32.6665 182.969 30.0929C184.062 27.4501 184.625 24.606 184.625 21.7322C184.625 18.8584 184.062 16.0143 182.969 13.3715ZM176.533 27.2924C175.836 29.0083 174.833 30.5733 173.575 31.9056C172.312 33.2408 170.804 34.3035 169.139 35.0319C168.477 35.3269 167.791 35.562 167.089 35.7346C165.98 36.0192 164.841 36.1595 163.698 36.1521H156.69V7.33263H163.698C165.547 7.32763 167.378 7.70866 169.08 8.45283C170.748 9.19205 172.263 10.2531 173.546 11.5792C174.835 12.9032 175.863 14.4734 176.572 16.2025C177.287 17.9613 177.656 19.8499 177.656 21.7576C177.656 23.6654 177.287 25.554 176.572 27.3128" fill="#1C2A33"/>
<path d="M209.89 0.0717409C212.683 0.0499422 215.451 0.621894 218.022 1.75204C220.513 2.8638 222.778 4.45333 224.695 6.43647L219.767 11.5283C218.493 10.1609 216.96 9.07843 215.265 8.34796C213.569 7.61749 211.746 7.25456 209.909 7.28171C208.041 7.27071 206.19 7.65181 204.468 8.40191C202.814 9.11817 201.308 10.1552 200.032 11.457C198.758 12.7778 197.732 14.3317 197.006 16.0396C196.274 17.81 195.897 19.7153 195.897 21.6405C195.897 23.5658 196.274 25.4711 197.006 27.2415C197.714 28.9451 198.716 30.5014 199.963 31.8343C201.232 33.1454 202.74 34.1837 204.399 34.8894C206.13 35.6435 207.992 36.0247 209.87 36.0096C211.7 36.0317 213.516 35.6735 215.209 34.9563C216.903 34.239 218.439 33.1773 219.727 31.8343L224.656 36.9261C222.741 38.9125 220.476 40.5025 217.983 41.6105C215.405 42.7362 212.634 43.3161 209.836 43.3161C207.037 43.3161 204.266 42.7362 201.688 41.6105C199.203 40.5013 196.94 38.923 195.015 36.9566C193.096 34.9867 191.557 32.6573 190.481 30.0929C189.388 27.4429 188.825 24.5922 188.825 21.7118C188.825 18.8314 189.388 15.9807 190.481 13.3308C192.637 8.1167 196.649 3.95722 201.688 1.7113C204.265 0.563729 207.044 -0.0188292 209.85 0.000464006" fill="#1C2A33"/>
<path d="M5.07699 78.3289C2.26348 78.3289 0.856728 77.1118 0.856728 74.6775C0.856728 73.5603 1.18984 72.6429 1.85606 71.9255C2.60428 71.126 3.66255 70.7263 5.03086 70.7263C6.26594 70.7263 7.36264 70.9082 8.32097 71.2721V76.6915H9.85841V78.3289H5.07699ZM6.30693 72.6481C5.9072 72.4585 5.40753 72.3636 4.80793 72.3636C4.22883 72.3636 3.77017 72.5635 3.43193 72.9632C3.09882 73.3527 2.93226 73.8601 2.93226 74.4853C2.93226 75.9561 3.72148 76.6915 5.29991 76.6915H6.30693V72.6481ZM6.13013 69.7346C5.83802 69.7346 5.59203 69.6296 5.39216 69.4195C5.19229 69.2145 5.09236 68.9634 5.09236 68.6661C5.09236 68.3689 5.19229 68.1152 5.39216 67.9051C5.59715 67.695 5.84314 67.5899 6.13013 67.5899C6.42224 67.5899 6.66823 67.695 6.8681 67.9051C7.06796 68.1101 7.1679 68.3638 7.1679 68.6661C7.1679 68.9582 7.06796 69.2093 6.8681 69.4195C6.66823 69.6296 6.42224 69.7346 6.13013 69.7346ZM3.51649 69.7346C3.22438 69.7346 2.97839 69.6296 2.77852 69.4195C2.57865 69.2145 2.47872 68.9634 2.47872 68.6661C2.47872 68.3689 2.57865 68.1152 2.77852 67.9051C2.98351 67.695 3.2295 67.5899 3.51649 67.5899C3.81373 67.5899 4.06484 67.695 4.26983 67.9051C4.4697 68.1101 4.56963 68.3638 4.56963 68.6661C4.56963 68.9582 4.4697 69.2093 4.26983 69.4195C4.06484 69.6296 3.81373 69.7346 3.51649 69.7346Z" fill="#1C2A33"/>
<path d="M9.62779 76.6915H14.2632V78.3289H9.62779V76.6915Z" fill="#1C2A33"/>
<path d="M14.0864 76.6915H16.2926V70.9261H18.3681V76.6915H20.5128V78.3289H14.0864V76.6915ZM16.4771 80.6889C16.4771 80.9861 16.3771 81.2372 16.1773 81.4422C15.9723 81.6523 15.7212 81.7574 15.4239 81.7574C15.1318 81.7574 14.8858 81.6549 14.686 81.4499C14.4861 81.2449 14.3862 80.9912 14.3862 80.6889C14.3862 80.3967 14.4861 80.1456 14.686 79.9355C14.8909 79.7254 15.1369 79.6203 15.4239 79.6203C15.7212 79.6203 15.9723 79.7228 16.1773 79.9278C16.3771 80.1379 16.4771 80.3916 16.4771 80.6889ZM19.0753 80.6889C19.0753 80.981 18.9754 81.2321 18.7755 81.4422C18.5705 81.6523 18.3245 81.7574 18.0376 81.7574C17.7454 81.7574 17.4995 81.6549 17.2996 81.4499C17.0997 81.2449 16.9998 80.9912 16.9998 80.6889C16.9998 80.3967 17.0997 80.1456 17.2996 79.9355C17.5046 79.7254 17.7506 79.6203 18.0376 79.6203C18.3297 79.6203 18.5757 79.7228 18.7755 79.9278C18.9754 80.1379 19.0753 80.3916 19.0753 80.6889Z" fill="#1C2A33"/>
<path d="M20.2668 76.6915H24.9022V78.3289H20.2668V76.6915Z" fill="#1C2A33"/>
<path d="M24.7254 76.6915H29.3608V78.3289H24.7254V76.6915Z" fill="#1C2A33"/>
<path d="M30.0834 68.5047C30.4728 68.5047 30.765 68.5252 30.9597 68.5662C30.765 68.4688 30.6676 68.2638 30.6676 67.9512C30.6676 67.4592 30.8393 67.0569 31.1826 66.7443C31.5875 66.3753 32.1743 66.1908 32.943 66.1908C33.1992 66.1908 33.5093 66.2165 33.8731 66.2677L33.6886 67.4515C33.4273 67.4003 33.1634 67.3747 32.8969 67.3747C32.3946 67.3747 32.1435 67.5515 32.1435 67.9051C32.1435 68.3048 32.5048 68.5047 33.2274 68.5047H34.1268V69.6885H30.0834V68.5047ZM29.184 76.6915H31.3902V70.9261H33.4657V78.3289H29.184V76.6915Z" fill="#1C2A33"/>
<path d="M35.9641 67.2286H38.0396V76.6915H39.6155V78.3289H35.9641V67.2286Z" fill="#1C2A33"/>
<path d="M39.3772 76.6915H44.0125V78.3289H39.3772V76.6915Z" fill="#1C2A33"/>
<path d="M43.8357 76.6915H48.4711V78.3289H43.8357V76.6915Z" fill="#1C2A33"/>
<path d="M54.2518 78.3289C52.5555 78.3289 51.3794 77.9189 50.7234 77.0989C50.4057 77.9189 49.5729 78.3289 48.2251 78.3289H47.9868V76.6915C48.6018 76.6915 49.0553 76.5403 49.3474 76.238C49.6703 75.9049 49.8317 75.3411 49.8317 74.5468C49.8317 73.4808 50.1699 72.5943 50.8464 71.887C51.5946 71.1132 52.6196 70.7263 53.9213 70.7263C56.2941 70.7263 57.4805 71.9332 57.4805 74.3469V76.6915H58.8026V78.3289H54.2518ZM55.451 74.6006C55.451 73.1093 54.8899 72.3636 53.7675 72.3636C53.1884 72.3636 52.7272 72.5635 52.3839 72.9632C52.0559 73.3527 51.8919 73.8601 51.8919 74.4853C51.8919 75.9561 52.6785 76.6915 54.2518 76.6915H55.451V74.6006Z" fill="#1C2A33"/>
<path d="M58.5643 76.6915H63.1997V78.3289H58.5643V76.6915Z" fill="#1C2A33"/>
<path d="M63.0229 76.6915H67.6583V78.3289H63.0229V76.6915Z" fill="#1C2A33"/>
<path d="M70.7255 69.604C70.4231 69.604 70.1669 69.5015 69.9567 69.2965C69.7466 69.0863 69.6416 68.8275 69.6416 68.5201C69.6416 68.2228 69.7466 67.9666 69.9567 67.7513C70.172 67.5412 70.4282 67.4362 70.7255 67.4362C71.0227 67.4362 71.2789 67.5412 71.4942 67.7513C71.7043 67.9666 71.8093 68.2228 71.8093 68.5201C71.8093 68.8173 71.7043 69.0735 71.4942 69.2888C71.2789 69.4989 71.0227 69.604 70.7255 69.604ZM67.4815 76.6915H69.6877V70.9261H71.7632V78.3289H67.4815V76.6915Z" fill="#1C2A33"/>
<path d="M77.3825 75.5077H75.2763L73.0239 67.4054L75.0841 67.121L77.3825 75.5077ZM73.6696 78.3289V76.6915H78.5356V67.2286H80.6112V78.3289H73.6696ZM74.6152 81.3653C74.9893 81.3653 75.266 81.3858 75.4454 81.4268C75.2711 81.2936 75.184 81.0963 75.184 80.8349C75.184 80.4147 75.3608 80.0662 75.7144 79.7895C76.1142 79.4768 76.6651 79.3205 77.3672 79.3205C77.7669 79.3205 78.077 79.3513 78.2973 79.4128L78.1128 80.489C77.7438 80.4326 77.4799 80.4044 77.321 80.4044C76.8496 80.4044 76.6138 80.5582 76.6138 80.8657C76.6138 81.1988 76.9495 81.3653 77.6208 81.3653H78.5817V82.4723H74.6152V81.3653Z" fill="#1C2A33"/>
<path d="M83.2709 67.2286H85.3465V78.3289H83.2709V67.2286Z" fill="#1C2A33"/>
<path d="M96.3237 78.3289C94.2687 78.3289 92.7697 77.9112 91.8267 77.0759C90.9709 76.3225 90.543 75.1874 90.543 73.6705C90.543 72.7685 90.6788 71.9434 90.9504 71.1952L93.172 70.8339C92.8133 71.618 92.6339 72.4841 92.6339 73.4322C92.6339 74.575 92.9183 75.395 93.4872 75.8921C94.0868 76.425 95.104 76.6915 96.539 76.6915H98.6837V70.9261H100.759V78.3289H96.3237ZM97.3923 69.7346C97.1002 69.7346 96.8542 69.6296 96.6543 69.4195C96.4544 69.2145 96.3545 68.9634 96.3545 68.6661C96.3545 68.3689 96.4544 68.1152 96.6543 67.9051C96.8542 67.695 97.1002 67.5899 97.3923 67.5899C97.6844 67.5899 97.9304 67.695 98.1302 67.9051C98.3301 68.1101 98.43 68.3638 98.43 68.6661C98.43 68.9582 98.3301 69.2093 98.1302 69.4195C97.9252 69.6296 97.6792 69.7346 97.3923 69.7346ZM94.7786 69.7346C94.4865 69.7346 94.2405 69.6296 94.0406 69.4195C93.8408 69.2145 93.7409 68.9634 93.7409 68.6661C93.7409 68.3689 93.8408 68.1152 94.0406 67.9051C94.2405 67.695 94.4865 67.5899 94.7786 67.5899C95.0759 67.5899 95.327 67.695 95.532 67.9051C95.7318 68.1101 95.8318 68.3638 95.8318 68.6661C95.8318 68.9582 95.7318 69.2093 95.532 69.4195C95.327 69.6296 95.0759 69.7346 94.7786 69.7346Z" fill="#1C2A33"/>
<path d="M103.273 67.2286H105.348V78.3289H103.273V67.2286Z" fill="#1C2A33"/>
<path d="M106.963 82.3262C106.502 82.3262 106.061 82.275 105.641 82.1725L105.794 80.5197C106.23 80.6427 106.655 80.7042 107.07 80.7042C107.639 80.7042 108.057 80.5505 108.323 80.243C108.626 79.8945 108.777 79.3154 108.777 78.5057V70.9261H110.853V78.3904C110.853 81.0143 109.556 82.3262 106.963 82.3262Z" fill="#1C2A33"/>
<path d="M113.359 67.2286H115.434V76.6915H117.01V78.3289H113.359V67.2286Z" fill="#1C2A33"/>
<path d="M116.772 76.6915H121.407V78.3289H116.772V76.6915Z" fill="#1C2A33"/>
<path d="M121.23 76.6915H125.866V78.3289H121.23V76.6915Z" fill="#1C2A33"/>
<path d="M125.689 76.6915H130.324V78.3289H125.689V76.6915Z" fill="#1C2A33"/>
<path d="M130.147 76.6915H130.931C131.454 76.6915 131.818 76.5583 132.023 76.2918C132.243 76.0099 132.354 75.4923 132.354 74.739V71.8717H134.429V74.7851C134.429 75.5436 134.493 76.0586 134.621 76.3302C134.77 76.6531 135.067 76.8145 135.513 76.8145C136.353 76.8145 136.774 76.1432 136.774 74.8005V71.2413H138.772V75.1925C138.772 75.8075 138.9 76.2124 139.157 76.4071C139.403 76.5967 139.895 76.6915 140.633 76.6915H141.04C141.117 76.1022 141.155 75.4718 141.155 74.8005C141.155 73.3502 141.002 71.9434 140.694 70.5802L142.724 70.3035C143.062 71.7128 143.231 73.1657 143.231 74.6621C143.231 75.2463 143.205 75.9228 143.154 76.6915H144.691V78.3289H140.394C139.538 78.3289 138.903 78.2571 138.488 78.1137C138.042 77.9548 137.706 77.6652 137.481 77.245C137.107 78.0496 136.315 78.4519 135.106 78.4519C133.983 78.4519 133.286 78.0445 133.015 77.2296C132.692 77.9625 131.992 78.3289 130.916 78.3289H130.147V76.6915ZM139.011 69.7346C138.713 69.7346 138.462 69.6296 138.257 69.4195C138.057 69.2145 137.957 68.9634 137.957 68.6661C137.957 68.3689 138.057 68.1152 138.257 67.9051C138.462 67.695 138.713 67.5899 139.011 67.5899C139.303 67.5899 139.549 67.695 139.749 67.9051C139.948 68.1101 140.048 68.3638 140.048 68.6661C140.048 68.9582 139.948 69.2093 139.749 69.4195C139.544 69.6296 139.298 69.7346 139.011 69.7346ZM136.397 69.7346C136.105 69.7346 135.859 69.6296 135.659 69.4195C135.459 69.2145 135.359 68.9634 135.359 68.6661C135.359 68.3689 135.459 68.1152 135.659 67.9051C135.864 67.695 136.11 67.5899 136.397 67.5899C136.689 67.5899 136.935 67.695 137.135 67.9051C137.335 68.1101 137.435 68.3638 137.435 68.6661C137.435 68.9582 137.335 69.2093 137.135 69.4195C136.935 69.6296 136.689 69.7346 136.397 69.7346ZM137.688 67.4977C137.422 67.4977 137.194 67.4003 137.004 67.2056C136.82 67.0159 136.728 66.7828 136.728 66.506C136.728 66.2293 136.82 65.9961 137.004 65.8065C137.194 65.6117 137.422 65.5144 137.688 65.5144C137.965 65.5144 138.196 65.6117 138.38 65.8065C138.57 65.9961 138.665 66.2293 138.665 66.506C138.665 66.7828 138.57 67.0159 138.38 67.2056C138.196 67.4003 137.965 67.4977 137.688 67.4977Z" fill="#1C2A33"/>
<path d="M144.461 76.6915H149.096V78.3289H144.461V76.6915Z" fill="#1C2A33"/>
<path d="M148.919 76.6915H153.555V78.3289H148.919V76.6915Z" fill="#1C2A33"/>
<path d="M153.378 76.6915H155.584V70.9261H157.66V76.6915H159.059V78.3289H153.378V76.6915ZM155.015 69.7346C154.723 69.7346 154.477 69.6296 154.277 69.4195C154.077 69.2145 153.978 68.9634 153.978 68.6661C153.978 68.3689 154.077 68.1152 154.277 67.9051C154.482 67.695 154.728 67.5899 155.015 67.5899C155.313 67.5899 155.564 67.695 155.769 67.9051C155.969 68.1101 156.068 68.3638 156.068 68.6661C156.068 68.9582 155.969 69.2093 155.769 69.4195C155.564 69.6296 155.313 69.7346 155.015 69.7346ZM157.629 69.7346C157.337 69.7346 157.091 69.6296 156.891 69.4195C156.691 69.2145 156.591 68.9634 156.591 68.6661C156.591 68.3689 156.691 68.1152 156.891 67.9051C157.096 67.695 157.342 67.5899 157.629 67.5899C157.921 67.5899 158.167 67.695 158.367 67.9051C158.567 68.1101 158.667 68.3638 158.667 68.6661C158.667 68.9582 158.567 69.2093 158.367 69.4195C158.162 69.6296 157.916 69.7346 157.629 69.7346Z" fill="#1C2A33"/>
<path d="M158.82 76.6915H163.456V78.3289H158.82V76.6915Z" fill="#1C2A33"/>
<path d="M163.279 76.6915H167.914V78.3289H163.279V76.6915Z" fill="#1C2A33"/>
<path d="M167.738 76.6915H168.522C169.044 76.6915 169.408 76.5583 169.613 76.2918C169.834 76.0099 169.944 75.4923 169.944 74.739V71.8717H172.019V74.7851C172.019 75.5436 172.083 76.0586 172.212 76.3302C172.36 76.6531 172.657 76.8145 173.103 76.8145C173.944 76.8145 174.364 76.1432 174.364 74.8005V71.2413H176.363V75.1925C176.363 75.8075 176.491 76.2124 176.747 76.4071C176.993 76.5967 177.485 76.6915 178.223 76.6915H178.63C178.707 76.1022 178.746 75.4718 178.746 74.8005C178.746 73.3502 178.592 71.9434 178.284 70.5802L180.314 70.3035C180.652 71.7128 180.821 73.1657 180.821 74.6621C180.821 75.9894 180.742 77.2117 180.583 78.3289H177.985C177.129 78.3289 176.493 78.2571 176.078 78.1137C175.632 77.9548 175.297 77.6652 175.071 77.245C174.697 78.0496 173.905 78.4519 172.696 78.4519C171.573 78.4519 170.877 78.0445 170.605 77.2296C170.282 77.9625 169.583 78.3289 168.506 78.3289H167.738V76.6915Z" fill="#1C2A33"/>
<path d="M181.967 78.3289V76.6915H186.833V67.2286H188.908V76.6915H190.469V78.3289H181.967ZM185.679 75.5077H183.573L181.321 67.4054L183.381 67.121L185.679 75.5077Z" fill="#1C2A33"/>
<path d="M190.23 76.6915H192.183V67.2286H194.258V78.3289H190.23V76.6915Z" fill="#1C2A33"/>
<path d="M203.421 70.6648C203.816 70.6648 204.111 70.6853 204.305 70.7263C204.106 70.6238 204.006 70.4188 204.006 70.1113C204.006 69.6193 204.18 69.2145 204.528 68.8967C204.933 68.5329 205.52 68.3509 206.289 68.3509C206.54 68.3509 206.85 68.3766 207.219 68.4278L207.027 69.604C206.765 69.5527 206.504 69.5271 206.243 69.5271C205.735 69.5271 205.482 69.7064 205.482 70.0652C205.482 70.4649 205.845 70.6648 206.573 70.6648H207.465V71.8409H203.421V70.6648ZM205.236 78.3289C203.181 78.3289 201.682 77.9112 200.739 77.0759C199.883 76.3225 199.455 75.1874 199.455 73.6705C199.455 72.7685 199.591 71.9434 199.862 71.1952L202.084 70.8339C201.725 71.618 201.546 72.4841 201.546 73.4322C201.546 74.575 201.83 75.395 202.399 75.8921C202.999 76.425 204.016 76.6915 205.451 76.6915H208.741V67.2286H210.824V78.3289H205.236Z" fill="#1C2A33"/>
<path d="M212.661 76.6915H217.335C217.243 74.3597 216.005 72.8915 213.622 72.2868L214.122 70.5495C215.885 71.0158 217.187 71.764 218.027 72.7941C218.919 73.8908 219.365 75.3898 219.365 77.2911V78.3289H212.661V76.6915Z" fill="#1C2A33"/>
<path d="M220.879 67.2286H222.955V78.3289H220.879V67.2286ZM219.226 65.2607L220.879 64.0307C221.32 64.4407 221.814 64.6457 222.363 64.6457C222.931 64.6457 223.477 64.4305 224 64V65.5144C223.508 65.9141 222.929 66.114 222.263 66.114C221.694 66.114 221.228 65.9449 220.864 65.6066L219.949 66.2523L219.226 65.2607Z" fill="#1C2A33"/>
<path d="M7.45398 101.217L6.57981 98.494H2.12501L1.22287 101.217H0.264771L3.90134 90.5257H4.8944L8.51698 101.217H7.45398ZM4.7895 93.0554C4.59834 92.4778 4.45614 92.0033 4.3629 91.6319H4.34891C4.23702 92.0188 4.09249 92.4829 3.91532 93.0245L2.38377 97.6662H6.30706L4.7895 93.0554Z" fill="#1C2A33"/>
<path d="M17.8322 95.7863C17.8322 97.5657 17.3193 98.9376 16.2936 99.902C15.3332 100.81 14.0324 101.264 12.3913 101.264C12.0789 101.264 11.6593 101.253 11.1325 101.233C10.6756 101.217 10.3399 101.212 10.1255 101.217V90.5257L12.8319 90.4715C16.1654 90.4715 17.8322 92.2431 17.8322 95.7863ZM16.8741 95.8482C16.8741 92.8156 15.4894 91.2993 12.72 91.2993C12.4309 91.2993 11.8715 91.3148 11.0416 91.3457V100.312C11.5451 100.389 12.037 100.428 12.5172 100.428C13.8599 100.428 14.9089 100.059 15.6642 99.3218C16.4708 98.5327 16.8741 97.3748 16.8741 95.8482Z" fill="#1C2A33"/>
<path d="M27.553 95.7863C27.553 97.5657 27.0401 98.9376 26.0144 99.902C25.054 100.81 23.7533 101.264 22.1121 101.264C21.7998 101.264 21.3802 101.253 20.8533 101.233C20.3964 101.217 20.0607 101.212 19.8463 101.217V90.5257L22.5527 90.4715C25.8862 90.4715 27.553 92.2431 27.553 95.7863ZM26.5949 95.8482C26.5949 92.8156 25.2102 91.2993 22.4408 91.2993C22.1518 91.2993 21.5923 91.3148 20.7624 91.3457V100.312C21.2659 100.389 21.7578 100.428 22.238 100.428C23.5807 100.428 24.6298 100.059 25.385 99.3218C26.1916 98.5327 26.5949 97.3748 26.5949 95.8482Z" fill="#1C2A33"/>
<path d="M36.3367 100.707C35.4788 101.119 34.5511 101.326 33.5533 101.326C32.1313 101.326 31.0497 100.861 30.3084 99.933C29.5904 99.0304 29.2314 97.7462 29.2314 96.0803C29.2314 94.3783 29.5927 93.0348 30.3154 92.0497C31.122 90.9563 32.3132 90.4096 33.889 90.4096C34.6909 90.4096 35.4579 90.5308 36.1898 90.7732L36.022 91.7093C35.262 91.4153 34.4834 91.2683 33.6862 91.2683C32.516 91.2683 31.6278 91.7299 31.0217 92.6531C30.4856 93.468 30.2175 94.5537 30.2175 95.9101C30.2175 98.9324 31.4203 100.444 33.8261 100.444C34.6513 100.444 35.4252 100.242 36.1479 99.8401L36.3367 100.707Z" fill="#1C2A33"/>
<path d="M45.2603 90.5721C44.9199 90.4535 44.533 90.3941 44.0994 90.3941C42.9804 90.3941 42.421 91.1858 42.421 92.7692V93.3417H44.6169V94.1385H42.421V101.217H41.5188V94.1385H39.8893V93.3417H41.5188V92.8079C41.5188 90.652 42.4023 89.5741 44.1693 89.5741C44.5656 89.5741 44.9572 89.6205 45.3442 89.7133L45.2603 90.5721Z" fill="#1C2A33"/>
<path d="M51.7501 97.1634C51.7501 98.3496 51.4518 99.3321 50.855 100.111C50.2302 100.931 49.4097 101.341 48.3933 101.341C47.4236 101.341 46.6729 101.013 46.1414 100.358C45.582 99.6674 45.3022 98.6488 45.3022 97.3026C45.3022 96.1525 45.5913 95.1958 46.1694 94.4325C46.7895 93.6228 47.6124 93.2179 48.6381 93.2179C49.5565 93.2179 50.2815 93.5093 50.813 94.0921C51.4378 94.7677 51.7501 95.7915 51.7501 97.1634ZM50.813 97.2098C50.813 96.2041 50.6219 95.4253 50.2396 94.8734C49.8479 94.3061 49.2815 94.0225 48.5402 94.0225C47.9014 94.0225 47.3699 94.2803 46.9457 94.7961C46.4701 95.3789 46.2323 96.1886 46.2323 97.2253C46.2323 98.2723 46.4352 99.082 46.8408 99.6545C47.2464 100.232 47.8175 100.521 48.5542 100.521C49.1929 100.521 49.7174 100.258 50.1277 99.7318C50.5846 99.1387 50.813 98.298 50.813 97.2098Z" fill="#1C2A33"/>
<path d="M56.9322 94.2004C55.3377 93.9167 54.5405 95.2087 54.5405 98.0763V101.217H53.6384V93.3417H54.5545C54.5545 94.0431 54.4915 94.729 54.3657 95.3995L54.4006 95.415C54.7829 93.7697 55.6408 93.0425 56.9742 93.2334L56.9322 94.2004Z" fill="#1C2A33"/>
<path d="M69.2057 95.7863C69.2057 97.5657 68.6928 98.9376 67.6671 99.902C66.7067 100.81 65.4059 101.264 63.7648 101.264C63.4524 101.264 63.0328 101.253 62.506 101.233C62.0491 101.217 61.7134 101.212 61.4989 101.217V90.5257L64.2054 90.4715C67.5389 90.4715 69.2057 92.2431 69.2057 95.7863ZM68.2476 95.8482C68.2476 92.8156 66.8629 91.2993 64.0935 91.2993C63.8044 91.2993 63.2449 91.3148 62.4151 91.3457V100.312C62.9186 100.389 63.4105 100.428 63.8907 100.428C65.2334 100.428 66.2824 100.059 67.0377 99.3218C67.8443 98.5327 68.2476 97.3748 68.2476 95.8482Z" fill="#1C2A33"/>
<path d="M76.4858 96.3666C76.4858 96.6451 76.4764 96.8771 76.4578 97.0628H71.6324C71.5624 99.3476 72.3783 100.49 74.08 100.49C74.8074 100.49 75.4764 100.335 76.0872 100.026L76.262 100.869C75.5533 101.184 74.7607 101.341 73.8842 101.341C71.7443 101.341 70.6743 99.9949 70.6743 97.3026C70.6743 96.1061 70.9447 95.1313 71.4855 94.3783C72.0496 93.6047 72.8049 93.2179 73.7514 93.2179C74.6698 93.2179 75.3692 93.5325 75.8494 94.1617C76.2736 94.7187 76.4858 95.4537 76.4858 96.3666ZM75.5277 96.3047C75.5417 95.5929 75.3855 95.0333 75.0591 94.6259C74.7328 94.2133 74.2782 94.007 73.6954 94.007C73.1592 94.007 72.714 94.2056 72.3597 94.6027C71.996 95.0101 71.7676 95.5775 71.6743 96.3047H75.5277Z" fill="#1C2A33"/>
<path d="M81.1644 101.217H80.1783L77.4998 93.3417H78.5278L80.3042 98.8731C80.4767 99.425 80.6072 99.8737 80.6958 100.219H80.7098C80.817 99.8221 80.9452 99.3889 81.0944 98.9195L82.9127 93.3417H83.8988L81.1644 101.217Z" fill="#1C2A33"/>
<path d="M90.4726 96.3666C90.4726 96.6451 90.4632 96.8771 90.4446 97.0628H85.6191C85.5492 99.3476 86.3651 100.49 88.0668 100.49C88.7941 100.49 89.4632 100.335 90.0739 100.026L90.2488 100.869C89.5401 101.184 88.7475 101.341 87.871 101.341C85.731 101.341 84.661 99.9949 84.661 97.3026C84.661 96.1061 84.9315 95.1313 85.4723 94.3783C86.0364 93.6047 86.7917 93.2179 87.7381 93.2179C88.6566 93.2179 89.3559 93.5325 89.8362 94.1617C90.2604 94.7187 90.4726 95.4537 90.4726 96.3666ZM89.5145 96.3047C89.5285 95.5929 89.3723 95.0333 89.0459 94.6259C88.7196 94.2133 88.265 94.007 87.6822 94.007C87.146 94.007 86.7008 94.2056 86.3465 94.6027C85.9828 95.0101 85.7543 95.5775 85.6611 96.3047H89.5145Z" fill="#1C2A33"/>
<path d="M92.5216 101.217V89.6515H93.4238V101.217H92.5216Z" fill="#1C2A33"/>
<path d="M101.893 97.1634C101.893 98.3496 101.594 99.3321 100.998 100.111C100.373 100.931 99.5523 101.341 98.5359 101.341C97.5662 101.341 96.8156 101.013 96.2841 100.358C95.7246 99.6674 95.4449 98.6488 95.4449 97.3026C95.4449 96.1525 95.7339 95.1958 96.312 94.4325C96.9321 93.6228 97.755 93.2179 98.7807 93.2179C99.6992 93.2179 100.424 93.5093 100.956 94.0921C101.58 94.7677 101.893 95.7915 101.893 97.1634ZM100.956 97.2098C100.956 96.2041 100.765 95.4253 100.382 94.8734C99.9906 94.3061 99.4241 94.0225 98.6828 94.0225C98.0441 94.0225 97.5126 94.2803 97.0883 94.7961C96.6128 95.3789 96.375 96.1886 96.375 97.2253C96.375 98.2723 96.5778 99.082 96.9834 99.6545C97.389 100.232 97.9602 100.521 98.6968 100.521C99.3355 100.521 99.86 100.258 100.27 99.7318C100.727 99.1387 100.956 98.298 100.956 97.2098Z" fill="#1C2A33"/>
<path d="M109.739 96.9236C109.739 98.3264 109.411 99.4121 108.753 100.181C108.115 100.923 107.24 101.295 106.131 101.295C105.595 101.295 105.121 101.264 104.711 101.202V105.194H103.809V93.3417H104.725C104.725 94.1411 104.683 94.7445 104.599 95.152L104.627 95.1674C105.065 93.8677 105.891 93.2179 107.103 93.2179C108.861 93.2179 109.739 94.4531 109.739 96.9236ZM108.795 97.0164C108.795 95.0204 108.184 94.0225 106.963 94.0225C106.259 94.0225 105.693 94.4119 105.264 95.1906C104.895 95.856 104.711 96.5961 104.711 97.4109V100.281C105.117 100.441 105.613 100.521 106.201 100.521C107.93 100.521 108.795 99.3528 108.795 97.0164Z" fill="#1C2A33"/>
<path d="M120.733 101.217V96.119C120.733 95.4279 120.642 94.9199 120.46 94.5949C120.246 94.2133 119.88 94.0225 119.362 94.0225C118.747 94.0225 118.222 94.3293 117.789 94.9431C117.327 95.5981 117.096 96.4491 117.096 97.496V101.217H116.194V96.0958C116.194 95.4408 116.113 94.956 115.949 94.6414C115.735 94.2288 115.36 94.0225 114.824 94.0225C114.189 94.0225 113.658 94.3448 113.229 94.9895C112.791 95.6497 112.572 96.4852 112.572 97.496V101.217H111.67V93.3417H112.586C112.586 94.0586 112.544 94.6723 112.46 95.1829L112.488 95.1984C112.926 93.878 113.775 93.2179 115.033 93.2179C115.77 93.2179 116.313 93.4706 116.663 93.976C116.905 94.3268 117.026 94.7239 117.026 95.1674C117.185 94.6826 117.446 94.2649 117.81 93.9142C118.295 93.45 118.868 93.2179 119.53 93.2179C120.933 93.2179 121.635 94.0611 121.635 95.7476V101.217H120.733Z" fill="#1C2A33"/>
<path d="M129.454 96.3666C129.454 96.6451 129.444 96.8771 129.426 97.0628H124.6C124.53 99.3476 125.346 100.49 127.048 100.49C127.775 100.49 128.444 100.335 129.055 100.026L129.23 100.869C128.521 101.184 127.729 101.341 126.852 101.341C124.712 101.341 123.642 99.9949 123.642 97.3026C123.642 96.1061 123.913 95.1313 124.453 94.3783C125.018 93.6047 125.773 93.2179 126.719 93.2179C127.638 93.2179 128.337 93.5325 128.817 94.1617C129.242 94.7187 129.454 95.4537 129.454 96.3666ZM128.496 96.3047C128.51 95.5929 128.353 95.0333 128.027 94.6259C127.701 94.2133 127.246 94.007 126.663 94.007C126.127 94.007 125.682 94.2056 125.328 94.6027C124.964 95.0101 124.736 95.5775 124.642 96.3047H128.496Z" fill="#1C2A33"/>
<path d="M136.202 101.217V96.119C136.202 94.7213 135.72 94.0225 134.755 94.0225C134.083 94.0225 133.533 94.3474 133.104 94.9972C132.675 95.6419 132.461 96.4645 132.461 97.4651V101.217H131.559V93.3417H132.475C132.475 94.074 132.433 94.6878 132.349 95.1829L132.377 95.1984C132.815 93.878 133.673 93.2179 134.951 93.2179C136.387 93.2179 137.105 94.056 137.105 95.7322V101.217H136.202Z" fill="#1C2A33"/>
<path d="M143.084 101.171C142.655 101.274 142.2 101.326 141.72 101.326C141.049 101.326 140.58 101.145 140.314 100.784C140.067 100.444 139.944 99.8633 139.944 99.0433V94.1385H138.314V93.3417H139.944V90.6804L140.832 90.4096V93.3417H143.028V94.1385H140.832V98.5559C140.832 99.3038 140.911 99.8066 141.07 100.064C141.224 100.317 141.522 100.444 141.965 100.444C142.333 100.444 142.664 100.4 142.958 100.312L143.084 101.171Z" fill="#1C2A33"/>
<path d="M154.231 100.707C153.373 101.119 152.446 101.326 151.448 101.326C150.026 101.326 148.944 100.861 148.203 99.933C147.485 99.0304 147.126 97.7462 147.126 96.0803C147.126 94.3783 147.487 93.0348 148.21 92.0497C149.017 90.9563 150.208 90.4096 151.784 90.4096C152.586 90.4096 153.352 90.5308 154.084 90.7732L153.917 91.7093C153.157 91.4153 152.378 91.2683 151.581 91.2683C150.411 91.2683 149.522 91.7299 148.916 92.6531C148.38 93.468 148.112 94.5537 148.112 95.9101C148.112 98.9324 149.315 100.444 151.721 100.444C152.546 100.444 153.32 100.242 154.043 99.8401L154.231 100.707Z" fill="#1C2A33"/>
<path d="M162.19 97.1634C162.19 98.3496 161.891 99.3321 161.295 100.111C160.67 100.931 159.849 101.341 158.833 101.341C157.863 101.341 157.113 101.013 156.581 100.358C156.022 99.6674 155.742 98.6488 155.742 97.3026C155.742 96.1525 156.031 95.1958 156.609 94.4325C157.229 93.6228 158.052 93.2179 159.078 93.2179C159.996 93.2179 160.721 93.5093 161.253 94.0921C161.877 94.7677 162.19 95.7915 162.19 97.1634ZM161.253 97.2098C161.253 96.2041 161.062 95.4253 160.679 94.8734C160.288 94.3061 159.721 94.0225 158.98 94.0225C158.341 94.0225 157.81 94.2803 157.385 94.7961C156.91 95.3789 156.672 96.1886 156.672 97.2253C156.672 98.2723 156.875 99.082 157.28 99.6545C157.686 100.232 158.257 100.521 158.994 100.521C159.633 100.521 160.157 100.258 160.567 99.7318C161.024 99.1387 161.253 98.298 161.253 97.2098Z" fill="#1C2A33"/>
<path d="M168.722 101.217V96.119C168.722 94.7213 168.239 94.0225 167.274 94.0225C166.603 94.0225 166.053 94.3474 165.624 94.9972C165.195 95.6419 164.98 96.4645 164.98 97.4651V101.217H164.078V93.3417H164.994C164.994 94.074 164.952 94.6878 164.868 95.1829L164.896 95.1984C165.335 93.878 166.192 93.2179 167.47 93.2179C168.906 93.2179 169.624 94.056 169.624 95.7322V101.217H168.722Z" fill="#1C2A33"/>
<path d="M176.282 98.9041C176.282 99.6003 176.025 100.175 175.512 100.629C174.971 101.104 174.253 101.341 173.358 101.341C172.729 101.341 172.2 101.274 171.771 101.14L171.904 100.188C172.384 100.389 172.922 100.49 173.519 100.49C174.055 100.49 174.494 100.361 174.834 100.103C175.179 99.835 175.351 99.4817 175.351 99.0433C175.351 98.5946 175.163 98.2542 174.785 98.0221C174.617 97.919 174.204 97.7617 173.547 97.5502C172.974 97.3697 172.561 97.1634 172.309 96.9313C171.932 96.5909 171.743 96.1035 171.743 95.4691C171.743 94.7935 171.971 94.2545 172.428 93.8523C172.908 93.4293 173.577 93.2179 174.435 93.2179C174.939 93.2179 175.417 93.2746 175.869 93.3881L175.75 94.2468C175.26 94.0869 174.78 94.007 174.309 94.007C173.209 94.007 172.659 94.4557 172.659 95.3531C172.659 95.8018 172.848 96.1448 173.225 96.382C173.403 96.4955 173.818 96.6554 174.47 96.8617C175.048 97.0473 175.463 97.2511 175.715 97.4728C176.093 97.8081 176.282 98.2851 176.282 98.9041Z" fill="#1C2A33"/>
<path d="M183.072 101.217C183.072 100.485 183.114 99.8711 183.198 99.376L183.17 99.3605C182.732 100.681 181.872 101.341 180.589 101.341C179.158 101.341 178.442 100.503 178.442 98.8267V93.3417H179.345V98.4476C179.345 99.149 179.445 99.6622 179.645 99.9871C179.869 100.353 180.251 100.536 180.792 100.536C181.464 100.536 182.014 100.211 182.443 99.5616C182.872 98.9221 183.086 98.1021 183.086 97.1015V93.3417H183.988V101.217H183.072Z" fill="#1C2A33"/>
<path d="M186.807 101.217V89.6515H187.709V101.217H186.807Z" fill="#1C2A33"/>
<path d="M193.744 101.171C193.315 101.274 192.861 101.326 192.38 101.326C191.709 101.326 191.24 101.145 190.975 100.784C190.728 100.444 190.604 99.8633 190.604 99.0433V94.1385H188.975V93.3417H190.604V90.6804L191.492 90.4096V93.3417H193.688V94.1385H191.492V98.5559C191.492 99.3038 191.571 99.8066 191.73 100.064C191.884 100.317 192.182 100.444 192.625 100.444C192.993 100.444 193.324 100.4 193.618 100.312L193.744 101.171Z" fill="#1C2A33"/>
<path d="M199.458 101.217C199.458 100.433 199.486 99.8582 199.542 99.492L199.514 99.4765C199.332 100.013 199.024 100.451 198.59 100.792C198.124 101.158 197.59 101.341 196.989 101.341C196.429 101.341 195.97 101.16 195.611 100.799C195.243 100.423 195.059 99.9227 195.059 99.2986C195.059 98.494 195.429 97.8545 196.171 97.38C196.945 96.8849 198.036 96.6373 199.444 96.6373V96.2118C199.444 95.4485 199.322 94.8992 199.08 94.564C198.824 94.203 198.385 94.0225 197.765 94.0225C197.066 94.0225 196.355 94.2184 195.632 94.6104L195.415 93.7826C196.185 93.4061 197.012 93.2179 197.898 93.2179C199.53 93.2179 200.346 94.1308 200.346 95.9565V98.7803C200.346 99.4559 200.355 100.268 200.374 101.217H199.458ZM199.444 97.3955C197.131 97.3955 195.975 97.9783 195.975 99.1439C195.975 99.5462 196.087 99.8737 196.311 100.126C196.544 100.389 196.847 100.521 197.22 100.521C197.858 100.521 198.395 100.211 198.828 99.5926C199.238 99.0149 199.444 98.347 199.444 97.5889V97.3955Z" fill="#1C2A33"/>
<path d="M207.661 101.217V96.119C207.661 94.7213 207.178 94.0225 206.213 94.0225C205.542 94.0225 204.992 94.3474 204.563 94.9972C204.134 95.6419 203.919 96.4645 203.919 97.4651V101.217H203.017V93.3417H203.933C203.933 94.074 203.891 94.6878 203.808 95.1829L203.835 95.1984C204.274 93.878 205.132 93.2179 206.409 93.2179C207.845 93.2179 208.563 94.056 208.563 95.7322V101.217H207.661Z" fill="#1C2A33"/>
<path d="M215.843 100.854C215.2 101.158 214.458 101.31 213.619 101.31C211.586 101.31 210.57 100.059 210.57 97.5579C210.57 96.2273 210.857 95.1829 211.43 94.4247C212.018 93.6408 212.843 93.2488 213.906 93.2488C214.638 93.2488 215.27 93.37 215.801 93.6124L215.598 94.4557C214.974 94.1875 214.363 94.0534 213.766 94.0534C213.062 94.0534 212.51 94.3629 212.109 94.9818C211.722 95.58 211.528 96.3691 211.528 97.3491C211.528 99.4327 212.288 100.475 213.808 100.475C214.461 100.475 215.076 100.33 215.654 100.041L215.843 100.854Z" fill="#1C2A33"/>
<path d="M219.955 102.022C219.545 103.239 219.104 104.09 218.633 104.575C218.158 105.07 217.529 105.317 216.745 105.317C216.535 105.317 216.298 105.286 216.032 105.225L216.13 104.304C216.358 104.392 216.631 104.435 216.948 104.435C217.801 104.435 218.494 103.685 219.025 102.184L219.368 101.217L216.619 93.3417H217.682L219.284 98.1923C219.55 99.0588 219.731 99.6648 219.829 100.01H219.843C219.927 99.6493 220.165 98.8525 220.557 97.6198L221.934 93.3417H222.92L219.955 102.022Z" fill="#1C2A33"/>
</svg>
