<svg width="30" height="30" viewBox="0 0 30 30" fill="none" xmlns="http://www.w3.org/2000/svg">
<rect width="30" height="30" rx="8" fill="#DCFFF8"/>
<path d="M14.7965 20.629L14.791 20.63L14.7555 20.6475L14.7455 20.6495L14.7385 20.6475L14.703 20.63C14.6976 20.6283 14.6936 20.6291 14.691 20.6325L14.689 20.6375L14.6805 20.8515L14.683 20.8615L14.688 20.868L14.74 20.905L14.7475 20.907L14.7535 20.905L14.8055 20.868L14.8115 20.86L14.8135 20.8515L14.805 20.638C14.8036 20.6326 14.8008 20.6296 14.7965 20.629ZM14.929 20.5725L14.9225 20.5735L14.83 20.62L14.825 20.625L14.8235 20.6305L14.8325 20.8455L14.835 20.8515L14.839 20.855L14.9395 20.9015C14.9458 20.9031 14.9506 20.9018 14.954 20.8975L14.956 20.8905L14.939 20.5835C14.9373 20.5775 14.934 20.5738 14.929 20.5725ZM14.5715 20.5735C14.5693 20.5721 14.5666 20.5717 14.5641 20.5723C14.5616 20.5728 14.5594 20.5743 14.558 20.5765L14.555 20.5835L14.538 20.8905C14.5383 20.8965 14.5411 20.9005 14.5465 20.9025L14.554 20.9015L14.6545 20.855L14.6595 20.851L14.6615 20.8455L14.67 20.6305L14.6685 20.6245L14.6635 20.6195L14.5715 20.5735Z" fill="#04AC8B"/>
<path d="M14.5 10C15.6935 10 16.8381 10.4741 17.682 11.318C18.5259 12.1619 19 13.3065 19 14.5C19 16.037 18.162 17.295 17.279 18.1975C16.8378 18.6435 16.3565 19.0479 15.841 19.4055L15.628 19.5505L15.528 19.617L15.3395 19.737L15.1715 19.8395L14.9635 19.9605C14.8223 20.0411 14.6626 20.0835 14.5 20.0835C14.3374 20.0835 14.1777 20.0411 14.0365 19.9605L13.8285 19.8395L13.5685 19.6795L13.4725 19.617L13.2675 19.4805C12.7114 19.1043 12.1935 18.6746 11.721 18.1975C10.838 17.2945 10 16.037 10 14.5C10 13.3065 10.4741 12.1619 11.318 11.318C12.1619 10.4741 13.3065 10 14.5 10ZM14.5 13C14.303 13 14.108 13.0388 13.926 13.1142C13.744 13.1896 13.5786 13.3001 13.4393 13.4393C13.3001 13.5786 13.1896 13.744 13.1142 13.926C13.0388 14.108 13 14.303 13 14.5C13 14.697 13.0388 14.892 13.1142 15.074C13.1896 15.256 13.3001 15.4214 13.4393 15.5607C13.5786 15.6999 13.744 15.8104 13.926 15.8858C14.108 15.9612 14.303 16 14.5 16C14.8978 16 15.2794 15.842 15.5607 15.5607C15.842 15.2794 16 14.8978 16 14.5C16 14.1022 15.842 13.7206 15.5607 13.4393C15.2794 13.158 14.8978 13 14.5 13Z" fill="#04AC8B"/>
</svg>
