<svg width="328" height="48" viewBox="0 0 328 48" fill="none" xmlns="http://www.w3.org/2000/svg">
<path d="M4.68886 20.9616C1.94747 20.9616 0.576782 19.7757 0.576782 17.4038C0.576782 16.3152 0.901354 15.4214 1.5505 14.7223C2.27954 13.9433 3.31068 13.5539 4.64392 13.5539C5.84733 13.5539 6.91592 13.7311 7.84969 14.0857V19.3662H9.34771V20.9616H4.68886ZM5.88728 15.4264C5.49779 15.2416 5.01093 15.1493 4.4267 15.1493C3.86245 15.1493 3.41554 15.344 3.08597 15.7335C2.7614 16.113 2.59912 16.6073 2.59912 17.2165C2.59912 18.6496 3.3681 19.3662 4.90607 19.3662H5.88728V15.4264ZM5.71501 12.5876C5.43038 12.5876 5.1907 12.4853 4.99595 12.2805C4.80121 12.0808 4.70384 11.8361 4.70384 11.5465C4.70384 11.2569 4.80121 11.0097 4.99595 10.805C5.19569 10.6003 5.43537 10.4979 5.71501 10.4979C5.99963 10.4979 6.23931 10.6003 6.43406 10.805C6.6288 11.0047 6.72617 11.2519 6.72617 11.5465C6.72617 11.8311 6.6288 12.0758 6.43406 12.2805C6.23931 12.4853 5.99963 12.5876 5.71501 12.5876ZM3.16836 12.5876C2.88374 12.5876 2.64406 12.4853 2.44931 12.2805C2.25457 12.0808 2.1572 11.8361 2.1572 11.5465C2.1572 11.2569 2.25457 11.0097 2.44931 10.805C2.64905 10.6003 2.88873 10.4979 3.16836 10.4979C3.45798 10.4979 3.70266 10.6003 3.9024 10.805C4.09714 11.0047 4.19451 11.2519 4.19451 11.5465C4.19451 11.8311 4.09714 12.0758 3.9024 12.2805C3.70266 12.4853 3.45798 12.5876 3.16836 12.5876Z" fill="white"/>
<path d="M9.12301 19.3662H13.6396V20.9616H9.12301V19.3662Z" fill="white"/>
<path d="M13.4673 19.3662H15.6169V13.7486H17.6393V19.3662H19.729V20.9616H13.4673V19.3662ZM15.7967 23.2611C15.7967 23.5507 15.6993 23.7953 15.5046 23.9951C15.3049 24.1998 15.0602 24.3022 14.7706 24.3022C14.4859 24.3022 14.2463 24.2023 14.0515 24.0026C13.8568 23.8028 13.7594 23.5557 13.7594 23.2611C13.7594 22.9764 13.8568 22.7318 14.0515 22.527C14.2512 22.3223 14.4909 22.2199 14.7706 22.2199C15.0602 22.2199 15.3049 22.3198 15.5046 22.5195C15.6993 22.7243 15.7967 22.9714 15.7967 23.2611ZM18.3284 23.2611C18.3284 23.5457 18.231 23.7904 18.0363 23.9951C17.8365 24.1998 17.5968 24.3022 17.3172 24.3022C17.0326 24.3022 16.7929 24.2023 16.5982 24.0026C16.4034 23.8028 16.306 23.5557 16.306 23.2611C16.306 22.9764 16.4034 22.7318 16.5982 22.527C16.7979 22.3223 17.0376 22.2199 17.3172 22.2199C17.6018 22.2199 17.8415 22.3198 18.0363 22.5195C18.231 22.7243 18.3284 22.9714 18.3284 23.2611Z" fill="white"/>
<path d="M19.4893 19.3662H24.0059V20.9616H19.4893V19.3662Z" fill="white"/>
<path d="M23.8336 19.3662H28.3502V20.9616H23.8336V19.3662Z" fill="white"/>
<path d="M29.0542 11.3892C29.4337 11.3892 29.7183 11.4092 29.9081 11.4491C29.7183 11.3543 29.6235 11.1545 29.6235 10.8499C29.6235 10.3706 29.7908 9.97857 30.1253 9.67397C30.5198 9.31445 31.0915 9.13468 31.8405 9.13468C32.0902 9.13468 32.3923 9.15965 32.7469 9.20959L32.5671 10.3631C32.3124 10.3131 32.0553 10.2882 31.7956 10.2882C31.3063 10.2882 31.0616 10.4604 31.0616 10.805C31.0616 11.1945 31.4136 11.3892 32.1177 11.3892H32.994V12.5427H29.0542V11.3892ZM28.1779 19.3662H30.3275V13.7486H32.3499V20.9616H28.1779V19.3662Z" fill="white"/>
<path d="M34.7842 10.1459H36.8065V19.3662H38.342V20.9616H34.7842V10.1459Z" fill="white"/>
<path d="M38.1098 19.3662H42.6263V20.9616H38.1098V19.3662Z" fill="white"/>
<path d="M42.4541 19.3662H46.9706V20.9616H42.4541V19.3662Z" fill="white"/>
<path d="M52.6032 20.9616C50.9503 20.9616 49.8044 20.5621 49.1652 19.7632C48.8556 20.5621 48.0442 20.9616 46.7309 20.9616H46.4987V19.3662C47.0979 19.3662 47.5398 19.2189 47.8245 18.9243C48.1391 18.5997 48.2963 18.0504 48.2963 17.2764C48.2963 16.2378 48.6259 15.374 49.285 14.6849C50.0141 13.9309 51.0128 13.5539 52.2811 13.5539C54.593 13.5539 55.749 14.7298 55.749 17.0817V19.3662H57.0373V20.9616H52.6032ZM53.7716 17.3289C53.7716 15.8758 53.2248 15.1493 52.1313 15.1493C51.567 15.1493 51.1176 15.344 50.7831 15.7335C50.4635 16.113 50.3037 16.6073 50.3037 17.2165C50.3037 18.6496 51.0702 19.3662 52.6032 19.3662H53.7716V17.3289Z" fill="white"/>
<path d="M56.8051 19.3662H61.3217V20.9616H56.8051V19.3662Z" fill="white"/>
<path d="M61.1494 19.3662H65.6659V20.9616H61.1494V19.3662Z" fill="white"/>
<path d="M68.6545 12.4603C68.3599 12.4603 68.1102 12.3604 67.9055 12.1607C67.7008 11.956 67.5984 11.7038 67.5984 11.4042C67.5984 11.1146 67.7008 10.8649 67.9055 10.6552C68.1152 10.4504 68.3649 10.3481 68.6545 10.3481C68.9441 10.3481 69.1938 10.4504 69.4035 10.6552C69.6082 10.8649 69.7106 11.1146 69.7106 11.4042C69.7106 11.6938 69.6082 11.9435 69.4035 12.1532C69.1938 12.3579 68.9441 12.4603 68.6545 12.4603ZM65.4937 19.3662H67.6433V13.7486H69.6657V20.9616H65.4937V19.3662Z" fill="white"/>
<path d="M75.1409 18.2127H73.0886L70.894 10.3181L72.9014 10.041L75.1409 18.2127ZM71.5232 20.9616V19.3662H76.2645V10.1459H78.2868V20.9616H71.5232ZM72.4445 23.9202C72.809 23.9202 73.0787 23.9402 73.2534 23.9801C73.0837 23.8503 72.9988 23.658 72.9988 23.4034C72.9988 22.9939 73.171 22.6544 73.5156 22.3847C73.9051 22.0801 74.4419 21.9278 75.126 21.9278C75.5154 21.9278 75.8175 21.9578 76.0323 22.0177L75.8525 23.0663C75.493 23.0114 75.2358 22.9839 75.081 22.9839C74.6216 22.9839 74.3919 23.1337 74.3919 23.4333C74.3919 23.7579 74.719 23.9202 75.3731 23.9202H76.3094V24.9988H72.4445V23.9202Z" fill="white"/>
<path d="M80.8784 10.1459H82.9007V20.9616H80.8784V10.1459Z" fill="white"/>
<path d="M93.5966 20.9616C91.5942 20.9616 90.1337 20.5546 89.2149 19.7407C88.381 19.0067 87.964 17.9006 87.964 16.4226C87.964 15.5437 88.0964 14.7398 88.361 14.0108L90.5257 13.6587C90.1761 14.4227 90.0013 15.2666 90.0013 16.1904C90.0013 17.3039 90.2785 18.1029 90.8327 18.5872C91.417 19.1065 92.4082 19.3662 93.8063 19.3662H95.8961V13.7486H97.9184V20.9616H93.5966ZM94.6377 12.5876C94.3531 12.5876 94.1134 12.4853 93.9187 12.2805C93.7239 12.0808 93.6266 11.8361 93.6266 11.5465C93.6266 11.2569 93.7239 11.0097 93.9187 10.805C94.1134 10.6003 94.3531 10.4979 94.6377 10.4979C94.9224 10.4979 95.162 10.6003 95.3568 10.805C95.5515 11.0047 95.6489 11.2519 95.6489 11.5465C95.6489 11.8311 95.5515 12.0758 95.3568 12.2805C95.157 12.4853 94.9174 12.5876 94.6377 12.5876ZM92.0911 12.5876C91.8065 12.5876 91.5668 12.4853 91.372 12.2805C91.1773 12.0808 91.0799 11.8361 91.0799 11.5465C91.0799 11.2569 91.1773 11.0097 91.372 10.805C91.5668 10.6003 91.8065 10.4979 92.0911 10.4979C92.3807 10.4979 92.6254 10.6003 92.8251 10.805C93.0199 11.0047 93.1172 11.2519 93.1172 11.5465C93.1172 11.8311 93.0199 12.0758 92.8251 12.2805C92.6254 12.4853 92.3807 12.5876 92.0911 12.5876Z" fill="white"/>
<path d="M100.368 10.1459H102.39V20.9616H100.368V10.1459Z" fill="white"/>
<path d="M103.963 24.8564C103.514 24.8564 103.084 24.8065 102.675 24.7066L102.824 23.0963C103.249 23.2161 103.663 23.276 104.068 23.276C104.622 23.276 105.029 23.1262 105.289 22.8266C105.583 22.4871 105.731 21.9228 105.731 21.1339V13.7486H107.753V21.0215C107.753 23.5781 106.49 24.8564 103.963 24.8564Z" fill="white"/>
<path d="M110.195 10.1459H112.217V19.3662H113.753V20.9616H110.195V10.1459Z" fill="white"/>
<path d="M113.52 19.3662H118.037V20.9616H113.52V19.3662Z" fill="white"/>
<path d="M117.865 19.3662H122.381V20.9616H117.865V19.3662Z" fill="white"/>
<path d="M122.209 19.3662H126.725V20.9616H122.209V19.3662Z" fill="white"/>
<path d="M126.553 19.3662H127.317C127.826 19.3662 128.181 19.2364 128.381 18.9767C128.595 18.7021 128.703 18.1977 128.703 17.4637V14.6699H130.725V17.5086C130.725 18.2477 130.788 18.7495 130.912 19.0142C131.057 19.3287 131.347 19.486 131.781 19.486C132.6 19.486 133.01 18.8319 133.01 17.5236V14.0557H134.957V17.9056C134.957 18.5048 135.082 18.8993 135.332 19.0891C135.571 19.2738 136.051 19.3662 136.77 19.3662H137.167C137.242 18.7919 137.279 18.1778 137.279 17.5236C137.279 16.1105 137.129 14.7398 136.83 13.4115L138.807 13.1419C139.137 14.5151 139.301 15.9307 139.301 17.3888C139.301 17.958 139.276 18.6172 139.226 19.3662H140.724V20.9616H136.537C135.704 20.9616 135.084 20.8917 134.68 20.7519C134.245 20.5971 133.918 20.3149 133.699 19.9055C133.334 20.6894 132.563 21.0814 131.384 21.0814C130.291 21.0814 129.612 20.6845 129.347 19.8905C129.032 20.6046 128.351 20.9616 127.302 20.9616H126.553V19.3662ZM135.189 12.5876C134.9 12.5876 134.655 12.4853 134.455 12.2805C134.26 12.0808 134.163 11.8361 134.163 11.5465C134.163 11.2569 134.26 11.0097 134.455 10.805C134.655 10.6003 134.9 10.4979 135.189 10.4979C135.474 10.4979 135.714 10.6003 135.908 10.805C136.103 11.0047 136.2 11.2519 136.2 11.5465C136.2 11.8311 136.103 12.0758 135.908 12.2805C135.709 12.4853 135.469 12.5876 135.189 12.5876ZM132.643 12.5876C132.358 12.5876 132.118 12.4853 131.924 12.2805C131.729 12.0808 131.631 11.8361 131.631 11.5465C131.631 11.2569 131.729 11.0097 131.924 10.805C132.123 10.6003 132.363 10.4979 132.643 10.4979C132.927 10.4979 133.167 10.6003 133.362 10.805C133.556 11.0047 133.654 11.2519 133.654 11.5465C133.654 11.8311 133.556 12.0758 133.362 12.2805C133.167 12.4853 132.927 12.5876 132.643 12.5876ZM133.901 10.408C133.641 10.408 133.419 10.3131 133.234 10.1234C133.055 9.93862 132.965 9.71142 132.965 9.44178C132.965 9.17214 133.055 8.94493 133.234 8.76018C133.419 8.57043 133.641 8.47555 133.901 8.47555C134.171 8.47555 134.395 8.57043 134.575 8.76018C134.76 8.94493 134.852 9.17214 134.852 9.44178C134.852 9.71142 134.76 9.93862 134.575 10.1234C134.395 10.3131 134.171 10.408 133.901 10.408Z" fill="white"/>
<path d="M140.5 19.3662H145.016V20.9616H140.5V19.3662Z" fill="white"/>
<path d="M144.844 19.3662H149.361V20.9616H144.844V19.3662Z" fill="white"/>
<path d="M149.188 19.3662H151.338V13.7486H153.36V19.3662H154.723V20.9616H149.188V19.3662ZM150.784 12.5876C150.499 12.5876 150.259 12.4853 150.065 12.2805C149.87 12.0808 149.773 11.8361 149.773 11.5465C149.773 11.2569 149.87 11.0097 150.065 10.805C150.264 10.6003 150.504 10.4979 150.784 10.4979C151.073 10.4979 151.318 10.6003 151.518 10.805C151.712 11.0047 151.81 11.2519 151.81 11.5465C151.81 11.8311 151.712 12.0758 151.518 12.2805C151.318 12.4853 151.073 12.5876 150.784 12.5876ZM153.33 12.5876C153.046 12.5876 152.806 12.4853 152.611 12.2805C152.417 12.0808 152.319 11.8361 152.319 11.5465C152.319 11.2569 152.417 11.0097 152.611 10.805C152.811 10.6003 153.051 10.4979 153.33 10.4979C153.615 10.4979 153.855 10.6003 154.049 10.805C154.244 11.0047 154.341 11.2519 154.341 11.5465C154.341 11.8311 154.244 12.0758 154.049 12.2805C153.85 12.4853 153.61 12.5876 153.33 12.5876Z" fill="white"/>
<path d="M154.491 19.3662H159.008V20.9616H154.491V19.3662Z" fill="white"/>
<path d="M158.836 19.3662H163.352V20.9616H158.836V19.3662Z" fill="white"/>
<path d="M163.18 19.3662H163.944C164.453 19.3662 164.808 19.2364 165.007 18.9767C165.222 18.7021 165.329 18.1977 165.329 17.4637V14.6699H167.352V17.5086C167.352 18.2477 167.414 18.7495 167.539 19.0142C167.684 19.3287 167.974 19.486 168.408 19.486C169.227 19.486 169.636 18.8319 169.636 17.5236V14.0557H171.584V17.9056C171.584 18.5048 171.709 18.8993 171.958 19.0891C172.198 19.2738 172.677 19.3662 173.396 19.3662H173.793C173.868 18.7919 173.906 18.1778 173.906 17.5236C173.906 16.1105 173.756 14.7398 173.456 13.4115L175.434 13.1419C175.763 14.5151 175.928 15.9307 175.928 17.3888C175.928 18.6821 175.851 19.873 175.696 20.9616H173.164C172.33 20.9616 171.711 20.8917 171.307 20.7519C170.872 20.5971 170.545 20.3149 170.325 19.9055C169.961 20.6894 169.189 21.0814 168.011 21.0814C166.917 21.0814 166.238 20.6845 165.974 19.8905C165.659 20.6046 164.977 20.9616 163.929 20.9616H163.18V19.3662Z" fill="white"/>
<path d="M177.044 20.9616V19.3662H181.785V10.1459H183.808V19.3662H185.328V20.9616H177.044ZM180.662 18.2127H178.609L176.415 10.3181L178.422 10.041L180.662 18.2127Z" fill="white"/>
<path d="M185.096 19.3662H186.998V10.1459H189.021V20.9616H185.096V19.3662Z" fill="white"/>
<path d="M197.949 13.4939C198.333 13.4939 198.621 13.5139 198.81 13.5539C198.616 13.454 198.518 13.2543 198.518 12.9546C198.518 12.4753 198.688 12.0808 199.028 11.7712C199.422 11.4167 199.994 11.2394 200.743 11.2394C200.987 11.2394 201.29 11.2644 201.649 11.3143L201.462 12.4603C201.207 12.4104 200.953 12.3854 200.698 12.3854C200.203 12.3854 199.956 12.5602 199.956 12.9097C199.956 13.2992 200.311 13.4939 201.02 13.4939H201.889V14.6399H197.949V13.4939ZM199.717 20.9616C197.714 20.9616 196.254 20.5546 195.335 19.7407C194.501 19.0067 194.084 17.9006 194.084 16.4226C194.084 15.5437 194.216 14.7398 194.481 14.0108L196.646 13.6587C196.296 14.4227 196.121 15.2666 196.121 16.1904C196.121 17.3039 196.399 18.1029 196.953 18.5872C197.537 19.1065 198.528 19.3662 199.926 19.3662H203.132V10.1459H205.162V20.9616H199.717Z" fill="white"/>
<path d="M206.952 19.3662H211.506C211.416 17.0942 210.21 15.6636 207.888 15.0744L208.375 13.3816C210.093 13.836 211.361 14.565 212.18 15.5687C213.049 16.6373 213.483 18.0979 213.483 19.9504V20.9616H206.952V19.3662Z" fill="white"/>
<path d="M214.959 10.1459H216.981V20.9616H214.959V10.1459ZM213.349 8.22838L214.959 7.02996C215.388 7.42943 215.87 7.62917 216.405 7.62917C216.959 7.62917 217.491 7.41945 218 7V8.47555C217.521 8.86504 216.956 9.05978 216.307 9.05978C215.753 9.05978 215.299 8.895 214.944 8.56544L214.053 9.19461L213.349 8.22838Z" fill="white"/>
<path d="M7.00492 43.2632L6.15316 40.6099H1.81256L0.933535 43.2632H0L3.54335 32.8457H4.51095L8.04067 43.2632H7.00492ZM4.40874 35.3107C4.22249 34.7478 4.08393 34.2855 3.99308 33.9237H3.97945C3.87042 34.3006 3.7296 34.7529 3.55697 35.2805L2.06468 39.8033H5.8874L4.40874 35.3107Z" fill="white"/>
<path d="M17.1171 37.9716C17.1171 39.7053 16.6174 41.042 15.618 41.9818C14.6822 42.8662 13.4147 43.3085 11.8157 43.3085C11.5113 43.3085 11.1025 43.2984 10.5892 43.2783C10.144 43.2632 9.81688 43.2582 9.60792 43.2632V32.8457L12.245 32.793C15.493 32.793 17.1171 34.5192 17.1171 37.9716ZM16.1835 38.0319C16.1835 35.077 14.8344 33.5995 12.136 33.5995C11.8543 33.5995 11.3092 33.6146 10.5006 33.6448V42.3813C10.9912 42.4567 11.4704 42.4943 11.9383 42.4943C13.2467 42.4943 14.2688 42.135 15.0047 41.4164C15.7906 40.6475 16.1835 39.5194 16.1835 38.0319Z" fill="white"/>
<path d="M26.5887 37.9716C26.5887 39.7053 26.089 41.042 25.0896 41.9818C24.1538 42.8662 22.8864 43.3085 21.2873 43.3085C20.983 43.3085 20.5741 43.2984 20.0608 43.2783C19.6156 43.2632 19.2885 43.2582 19.0796 43.2632V32.8457L21.7166 32.793C24.9647 32.793 26.5887 34.5192 26.5887 37.9716ZM25.6552 38.0319C25.6552 35.077 24.306 33.5995 21.6076 33.5995C21.3259 33.5995 20.7808 33.6146 19.9722 33.6448V42.3813C20.4628 42.4567 20.9421 42.4943 21.41 42.4943C22.7183 42.4943 23.7404 42.135 24.4763 41.4164C25.2622 40.6475 25.6552 39.5194 25.6552 38.0319Z" fill="white"/>
<path d="M35.1473 42.7657C34.3114 43.1677 33.4074 43.3688 32.4352 43.3688C31.0497 43.3688 29.9958 42.9165 29.2735 42.0119C28.5739 41.1325 28.2241 39.8812 28.2241 38.258C28.2241 36.5997 28.5762 35.2906 29.2803 34.3307C30.0662 33.2654 31.2269 32.7327 32.7623 32.7327C33.5437 32.7327 34.291 32.8508 35.0042 33.087L34.8406 33.9991C34.1002 33.7126 33.3415 33.5694 32.5647 33.5694C31.4245 33.5694 30.5591 34.0192 29.9685 34.9187C29.4461 35.7127 29.1849 36.7705 29.1849 38.0922C29.1849 41.037 30.3569 42.5094 32.701 42.5094C33.5051 42.5094 34.2592 42.3134 34.9633 41.9215L35.1473 42.7657Z" fill="white"/>
<path d="M43.8421 32.891C43.5105 32.7754 43.1334 32.7176 42.7109 32.7176C41.6207 32.7176 41.0755 33.489 41.0755 35.0318V35.5896H43.2152V36.366H41.0755V43.2632H40.1965V36.366H38.6088V35.5896H40.1965V35.0695C40.1965 32.9689 41.0574 31.9186 42.7791 31.9186C43.1652 31.9186 43.5468 31.9638 43.9239 32.0543L43.8421 32.891Z" fill="white"/>
<path d="M50.1656 39.3133C50.1656 40.4691 49.8749 41.4265 49.2934 42.1853C48.6847 42.9843 47.8851 43.3838 46.8948 43.3838C45.9499 43.3838 45.2185 43.0647 44.7007 42.4265C44.1555 41.7531 43.883 40.7606 43.883 39.449C43.883 38.3284 44.1646 37.3962 44.7279 36.6524C45.3321 35.8634 46.1339 35.469 47.1333 35.469C48.0282 35.469 48.7346 35.7529 49.2525 36.3208C49.8612 36.9791 50.1656 37.9766 50.1656 39.3133ZM49.2525 39.3586C49.2525 38.3786 49.0662 37.6198 48.6937 37.0821C48.3121 36.5293 47.7602 36.2529 47.0379 36.2529C46.4156 36.2529 45.8977 36.5042 45.4843 37.0067C45.0209 37.5746 44.7892 38.3635 44.7892 39.3736C44.7892 40.3938 44.9869 41.1827 45.3821 41.7406C45.7773 42.3034 46.3338 42.5848 47.0515 42.5848C47.6739 42.5848 48.185 42.3285 48.5847 41.8159C49.0299 41.238 49.2525 40.4189 49.2525 39.3586Z" fill="white"/>
<path d="M55.2149 36.4263C53.6612 36.1499 52.8844 37.4087 52.8844 40.2028V43.2632H52.0054V35.5896H52.8981C52.8981 36.273 52.8367 36.9414 52.7141 37.5947L52.7481 37.6097C53.1207 36.0067 53.9565 35.2981 55.2557 35.484L55.2149 36.4263Z" fill="white"/>
<path d="M67.1736 37.9716C67.1736 39.7053 66.6739 41.042 65.6745 41.9818C64.7387 42.8662 63.4713 43.3085 61.8723 43.3085C61.5679 43.3085 61.159 43.2984 60.6457 43.2783C60.2005 43.2632 59.8734 43.2582 59.6645 43.2632V32.8457L62.3015 32.793C65.5496 32.793 67.1736 34.5192 67.1736 37.9716ZM66.2401 38.0319C66.2401 35.077 64.8909 33.5995 62.1925 33.5995C61.9109 33.5995 61.3657 33.6146 60.5571 33.6448V42.3813C61.0477 42.4567 61.527 42.4943 61.9949 42.4943C63.3032 42.4943 64.3253 42.135 65.0613 41.4164C65.8472 40.6475 66.2401 39.5194 66.2401 38.0319Z" fill="white"/>
<path d="M74.2672 38.5369C74.2672 38.8083 74.2581 39.0344 74.2399 39.2153H69.5382C69.47 41.4415 70.265 42.5547 71.9231 42.5547C72.6318 42.5547 73.2836 42.4039 73.8787 42.1024L74.0491 42.924C73.3586 43.2306 72.5863 43.3838 71.7323 43.3838C69.6472 43.3838 68.6046 42.0722 68.6046 39.449C68.6046 38.2831 68.8681 37.3334 69.3951 36.5997C69.9447 35.8459 70.6807 35.469 71.6028 35.469C72.4978 35.469 73.1792 35.7755 73.6471 36.3886C74.0605 36.9313 74.2672 37.6474 74.2672 38.5369ZM73.3336 38.4766C73.3472 37.7831 73.1951 37.2379 72.8771 36.8409C72.5591 36.4388 72.1162 36.2378 71.5483 36.2378C71.0259 36.2378 70.5921 36.4313 70.2468 36.8183C69.8925 37.2153 69.6699 37.768 69.579 38.4766H73.3336Z" fill="white"/>
<path d="M78.8258 43.2632H77.865L75.2552 35.5896H76.2569L77.9877 40.9792C78.1557 41.5169 78.2829 41.9541 78.3693 42.2908H78.3829C78.4874 41.9039 78.6123 41.4817 78.7577 41.0244L80.5293 35.5896H81.4901L78.8258 43.2632Z" fill="white"/>
<path d="M87.8954 38.5369C87.8954 38.8083 87.8863 39.0344 87.8681 39.2153H83.1664C83.0983 41.4415 83.8932 42.5547 85.5513 42.5547C86.26 42.5547 86.9119 42.4039 87.507 42.1024L87.6774 42.924C86.9869 43.2306 86.2146 43.3838 85.3605 43.3838C83.2754 43.3838 82.2329 42.0722 82.2329 39.449C82.2329 38.2831 82.4963 37.3334 83.0233 36.5997C83.573 35.8459 84.3089 35.469 85.2311 35.469C86.126 35.469 86.8074 35.7755 87.2753 36.3886C87.6887 36.9313 87.8954 37.6474 87.8954 38.5369ZM86.9619 38.4766C86.9755 37.7831 86.8233 37.2379 86.5053 36.8409C86.1873 36.4388 85.7444 36.2378 85.1766 36.2378C84.6542 36.2378 84.2203 36.4313 83.8751 36.8183C83.5207 37.2153 83.2981 37.768 83.2073 38.4766H86.9619Z" fill="white"/>
<path d="M89.8919 43.2632V31.994H90.771V43.2632H89.8919Z" fill="white"/>
<path d="M99.0229 39.3133C99.0229 40.4691 98.7321 41.4265 98.1507 42.1853C97.5419 42.9843 96.7424 43.3838 95.7521 43.3838C94.8072 43.3838 94.0758 43.0647 93.5579 42.4265C93.0128 41.7531 92.7402 40.7606 92.7402 39.449C92.7402 38.3284 93.0219 37.3962 93.5852 36.6524C94.1894 35.8634 94.9912 35.469 95.9906 35.469C96.8855 35.469 97.5919 35.7529 98.1098 36.3208C98.7185 36.9791 99.0229 37.9766 99.0229 39.3133ZM98.1098 39.3586C98.1098 38.3786 97.9235 37.6198 97.551 37.0821C97.1694 36.5293 96.6175 36.2529 95.8952 36.2529C95.2728 36.2529 94.755 36.5042 94.3416 37.0067C93.8782 37.5746 93.6465 38.3635 93.6465 39.3736C93.6465 40.3938 93.8441 41.1827 94.2394 41.7406C94.6346 42.3034 95.1911 42.5848 95.9088 42.5848C96.5312 42.5848 97.0422 42.3285 97.442 41.8159C97.8872 41.238 98.1098 40.4189 98.1098 39.3586Z" fill="white"/>
<path d="M106.668 39.0796C106.668 40.4465 106.348 41.5044 105.708 42.2531C105.085 42.9768 104.233 43.3386 103.152 43.3386C102.63 43.3386 102.169 43.3085 101.769 43.2481V47.1377H100.89V35.5896H101.783C101.783 36.3685 101.742 36.9565 101.66 37.3535L101.687 37.3685C102.114 36.1022 102.918 35.469 104.099 35.469C105.812 35.469 106.668 36.6725 106.668 39.0796ZM105.748 39.1701C105.748 37.2253 105.153 36.2529 103.963 36.2529C103.277 36.2529 102.725 36.6323 102.307 37.3911C101.948 38.0394 101.769 38.7605 101.769 39.5545V42.3511C102.164 42.5069 102.648 42.5848 103.22 42.5848C104.906 42.5848 105.748 41.4466 105.748 39.1701Z" fill="white"/>
<path d="M117.38 43.2632V38.2957C117.38 37.6223 117.292 37.1273 117.114 36.8107C116.905 36.4388 116.549 36.2529 116.045 36.2529C115.445 36.2529 114.934 36.5519 114.511 37.1499C114.062 37.7881 113.837 38.6173 113.837 39.6375V43.2632H112.958V38.2731C112.958 37.6349 112.878 37.1625 112.719 36.8559C112.51 36.4539 112.145 36.2529 111.622 36.2529C111.004 36.2529 110.487 36.567 110.069 37.1952C109.642 37.8384 109.428 38.6525 109.428 39.6375V43.2632H108.549V35.5896H109.442C109.442 36.2881 109.401 36.8861 109.319 37.3836L109.346 37.3987C109.773 36.1122 110.6 35.469 111.827 35.469C112.544 35.469 113.074 35.7152 113.414 36.2077C113.651 36.5494 113.769 36.9364 113.769 37.3685C113.923 36.8962 114.177 36.4891 114.532 36.1474C115.004 35.6951 115.563 35.469 116.208 35.469C117.575 35.469 118.259 36.2906 118.259 37.9339V43.2632H117.38Z" fill="white"/>
<path d="M125.877 38.5369C125.877 38.8083 125.868 39.0344 125.85 39.2153H121.148C121.08 41.4415 121.875 42.5547 123.533 42.5547C124.242 42.5547 124.894 42.4039 125.489 42.1024L125.659 42.924C124.969 43.2306 124.197 43.3838 123.342 43.3838C121.257 43.3838 120.215 42.0722 120.215 39.449C120.215 38.2831 120.478 37.3334 121.005 36.5997C121.555 35.8459 122.291 35.469 123.213 35.469C124.108 35.469 124.789 35.7755 125.257 36.3886C125.671 36.9313 125.877 37.6474 125.877 38.5369ZM124.944 38.4766C124.957 37.7831 124.805 37.2379 124.487 36.8409C124.169 36.4388 123.726 36.2378 123.159 36.2378C122.636 36.2378 122.202 36.4313 121.857 36.8183C121.503 37.2153 121.28 37.768 121.189 38.4766H124.944Z" fill="white"/>
<path d="M132.453 43.2632V38.2957C132.453 36.9338 131.983 36.2529 131.042 36.2529C130.388 36.2529 129.852 36.5695 129.434 37.2027C129.016 37.8309 128.807 38.6324 128.807 39.6073V43.2632H127.928V35.5896H128.821C128.821 36.3032 128.78 36.9012 128.698 37.3836L128.726 37.3987C129.153 36.1122 129.989 35.469 131.233 35.469C132.632 35.469 133.332 36.2856 133.332 37.9188V43.2632H132.453Z" fill="white"/>
<path d="M139.158 43.218C138.74 43.3185 138.297 43.3688 137.829 43.3688C137.175 43.3688 136.719 43.1929 136.46 42.8411C136.219 42.5094 136.099 41.9441 136.099 41.1451V36.366H134.511V35.5896H136.099V32.9965L136.964 32.7327V35.5896H139.104V36.366H136.964V40.6702C136.964 41.3988 137.041 41.8888 137.196 42.1401C137.346 42.3863 137.636 42.5094 138.068 42.5094C138.427 42.5094 138.749 42.4667 139.035 42.3813L139.158 43.218Z" fill="white"/>
<path d="M150.02 42.7657C149.184 43.1677 148.28 43.3688 147.308 43.3688C145.922 43.3688 144.868 42.9165 144.146 42.0119C143.446 41.1325 143.097 39.8812 143.097 38.258C143.097 36.5997 143.449 35.2906 144.153 34.3307C144.939 33.2654 146.099 32.7327 147.635 32.7327C148.416 32.7327 149.163 32.8508 149.877 33.087L149.713 33.9991C148.973 33.7126 148.214 33.5694 147.437 33.5694C146.297 33.5694 145.432 34.0192 144.841 34.9187C144.319 35.7127 144.057 36.7705 144.057 38.0922C144.057 41.037 145.229 42.5094 147.574 42.5094C148.378 42.5094 149.132 42.3134 149.836 41.9215L150.02 42.7657Z" fill="white"/>
<path d="M157.774 39.3133C157.774 40.4691 157.484 41.4265 156.902 42.1853C156.293 42.9843 155.494 43.3838 154.503 43.3838C153.559 43.3838 152.827 43.0647 152.309 42.4265C151.764 41.7531 151.492 40.7606 151.492 39.449C151.492 38.3284 151.773 37.3962 152.337 36.6524C152.941 35.8634 153.743 35.469 154.742 35.469C155.637 35.469 156.343 35.7529 156.861 36.3208C157.47 36.9791 157.774 37.9766 157.774 39.3133ZM156.861 39.3586C156.861 38.3786 156.675 37.6198 156.302 37.0821C155.921 36.5293 155.369 36.2529 154.647 36.2529C154.024 36.2529 153.506 36.5042 153.093 37.0067C152.63 37.5746 152.398 38.3635 152.398 39.3736C152.398 40.3938 152.596 41.1827 152.991 41.7406C153.386 42.3034 153.942 42.5848 154.66 42.5848C155.283 42.5848 155.794 42.3285 156.193 41.8159C156.639 41.238 156.861 40.4189 156.861 39.3586Z" fill="white"/>
<path d="M164.139 43.2632V38.2957C164.139 36.9338 163.668 36.2529 162.728 36.2529C162.074 36.2529 161.538 36.5695 161.12 37.2027C160.702 37.8309 160.493 38.6324 160.493 39.6073V43.2632H159.614V35.5896H160.507C160.507 36.3032 160.466 36.9012 160.384 37.3836L160.411 37.3987C160.838 36.1122 161.674 35.469 162.919 35.469C164.318 35.469 165.018 36.2856 165.018 37.9188V43.2632H164.139Z" fill="white"/>
<path d="M171.505 41.0094C171.505 41.6878 171.255 42.2481 170.755 42.6903C170.228 43.1527 169.529 43.3838 168.656 43.3838C168.043 43.3838 167.528 43.3185 167.11 43.1878L167.239 42.2607C167.707 42.4567 168.232 42.5547 168.813 42.5547C169.336 42.5547 169.763 42.429 170.094 42.1778C170.43 41.9164 170.598 41.5722 170.598 41.1451C170.598 40.7079 170.414 40.3762 170.047 40.15C169.883 40.0495 169.481 39.8963 168.84 39.6902C168.282 39.5143 167.88 39.3133 167.634 39.0872C167.266 38.7555 167.082 38.2806 167.082 37.6625C167.082 37.0042 167.305 36.4791 167.75 36.0871C168.218 35.675 168.87 35.469 169.706 35.469C170.196 35.469 170.662 35.5242 171.103 35.6348L170.987 36.4715C170.51 36.3157 170.042 36.2378 169.583 36.2378C168.511 36.2378 167.975 36.675 167.975 37.5494C167.975 37.9866 168.159 38.3208 168.527 38.552C168.7 38.6625 169.104 38.8183 169.74 39.0193C170.303 39.2003 170.707 39.3988 170.953 39.6148C171.321 39.9415 171.505 40.4063 171.505 41.0094Z" fill="white"/>
<path d="M178.121 43.2632C178.121 42.5496 178.162 41.9516 178.244 41.4692L178.217 41.4541C177.79 42.7406 176.951 43.3838 175.702 43.3838C174.308 43.3838 173.61 42.5672 173.61 40.934V35.5896H174.489V40.5646C174.489 41.2481 174.587 41.7481 174.782 42.0647C175 42.4215 175.373 42.5999 175.9 42.5999C176.554 42.5999 177.09 42.2833 177.508 41.6501C177.926 41.027 178.135 40.2279 178.135 39.253V35.5896H179.014V43.2632H178.121Z" fill="white"/>
<path d="M181.76 43.2632V31.994H182.639V43.2632H181.76Z" fill="white"/>
<path d="M188.52 43.218C188.102 43.3185 187.659 43.3688 187.191 43.3688C186.537 43.3688 186.08 43.1929 185.821 42.8411C185.58 42.5094 185.46 41.9441 185.46 41.1451V36.366H183.872V35.5896H185.46V32.9965L186.325 32.7327V35.5896H188.465V36.366H186.325V40.6702C186.325 41.3988 186.403 41.8888 186.557 42.1401C186.707 42.3863 186.998 42.5094 187.429 42.5094C187.788 42.5094 188.111 42.4667 188.397 42.3813L188.52 43.218Z" fill="white"/>
<path d="M194.087 43.2632C194.087 42.4994 194.114 41.9391 194.169 41.5823L194.141 41.5672C193.964 42.0898 193.664 42.517 193.242 42.8486C192.788 43.2054 192.267 43.3838 191.681 43.3838C191.136 43.3838 190.689 43.2079 190.339 42.8562C189.98 42.4893 189.801 42.0019 189.801 41.3938C189.801 40.6099 190.162 39.9867 190.884 39.5244C191.638 39.042 192.701 38.8007 194.073 38.8007V38.3862C194.073 37.6424 193.955 37.1072 193.719 36.7806C193.469 36.4288 193.042 36.2529 192.438 36.2529C191.756 36.2529 191.064 36.4439 190.359 36.8258L190.148 36.0192C190.898 35.6524 191.704 35.469 192.567 35.469C194.157 35.469 194.952 36.3584 194.952 38.1374V40.8888C194.952 41.5471 194.961 42.3386 194.979 43.2632H194.087ZM194.073 39.5395C191.82 39.5395 190.693 40.1073 190.693 41.243C190.693 41.635 190.802 41.9541 191.02 42.2004C191.248 42.4567 191.543 42.5848 191.906 42.5848C192.529 42.5848 193.051 42.2833 193.473 41.6802C193.873 41.1174 194.073 40.4666 194.073 39.7279V39.5395Z" fill="white"/>
<path d="M202.08 43.2632V38.2957C202.08 36.9338 201.61 36.2529 200.669 36.2529C200.015 36.2529 199.479 36.5695 199.061 37.2027C198.643 37.8309 198.434 38.6324 198.434 39.6073V43.2632H197.555V35.5896H198.448C198.448 36.3032 198.407 36.9012 198.325 37.3836L198.352 37.3987C198.779 36.1122 199.615 35.469 200.86 35.469C202.259 35.469 202.959 36.2856 202.959 37.9188V43.2632H202.08Z" fill="white"/>
<path d="M210.052 42.9089C209.425 43.2054 208.703 43.3537 207.885 43.3537C205.905 43.3537 204.914 42.135 204.914 39.6978C204.914 38.4012 205.194 37.3836 205.753 36.6449C206.325 35.881 207.129 35.4991 208.165 35.4991C208.878 35.4991 209.493 35.6172 210.011 35.8534L209.814 36.675C209.205 36.4137 208.61 36.2831 208.028 36.2831C207.342 36.2831 206.804 36.5846 206.413 37.1876C206.036 37.7706 205.848 38.5394 205.848 39.4942C205.848 41.5245 206.588 42.5396 208.069 42.5396C208.705 42.5396 209.305 42.3989 209.868 42.1175L210.052 42.9089Z" fill="white"/>
<path d="M214.059 44.0472C213.659 45.2331 213.23 46.0623 212.771 46.5347C212.308 47.0171 211.694 47.2583 210.931 47.2583C210.727 47.2583 210.495 47.2282 210.236 47.1679L210.332 46.2709C210.554 46.3563 210.82 46.399 211.129 46.399C211.96 46.399 212.635 45.6678 213.153 44.2055L213.487 43.2632L210.809 35.5896H211.844L213.405 40.3159C213.664 41.1601 213.841 41.7506 213.936 42.0873H213.95C214.032 41.7355 214.263 40.9591 214.645 39.7581L215.987 35.5896H216.948L214.059 44.0472Z" fill="white"/>
<path d="M292.534 38.3819H286.929V37.491H286.866C285.489 38.0717 284.009 38.3667 282.515 38.3582H276.909V16.0715H282.515C283.994 16.0646 285.459 16.3625 286.819 16.9466C286.857 16.959 286.894 16.9748 286.929 16.9939V16.0715H292.534C293.446 16.0698 294.354 16.181 295.239 16.4026C294.955 16.0636 294.647 15.7325 294.332 15.4172C292.794 13.8832 290.981 12.6529 288.987 11.7908C286.945 10.9048 284.741 10.4538 282.515 10.4663H271.351V44.0028H282.515C284.751 44.017 286.966 43.566 289.018 42.6784C291.013 41.8247 292.824 40.5963 294.356 39.0599C294.671 38.7445 294.963 38.4134 295.246 38.0744C294.359 38.2947 293.448 38.4033 292.534 38.3976" fill="#04AC8B"/>
<path d="M307.978 20.7465C306.243 16.7198 303.033 13.5098 299.007 11.775C296.965 10.8891 294.76 10.438 292.534 10.4506H281.371V43.9871H292.534C294.77 43.9974 296.984 43.5465 299.038 42.6627C301.032 41.8089 302.844 40.5806 304.375 39.0441C305.898 37.4988 307.12 35.6836 307.978 33.6912C308.852 31.6453 309.303 29.4436 309.303 27.2188C309.303 24.9941 308.852 22.7924 307.978 20.7465ZM302.83 31.5232C302.273 32.8516 301.471 34.0631 300.465 35.0945C299.455 36.1281 298.249 36.9508 296.918 37.5147C296.388 37.743 295.839 37.925 295.278 38.0587C294.391 38.279 293.48 38.3876 292.566 38.3819H286.961V16.0715H292.566C294.044 16.0677 295.509 16.3626 296.87 16.9387C298.204 17.511 299.416 18.3324 300.442 19.359C301.473 20.3839 302.295 21.5995 302.862 22.9381C303.434 24.2996 303.729 25.7616 303.729 27.2385C303.729 28.7154 303.434 30.1775 302.862 31.539" fill="white"/>
<path d="M246.562 44.0014C240.319 44.0014 235.766 42.7392 232.904 40.2148C230.302 37.9379 229.001 34.5057 229.001 29.9182C228.972 27.3727 229.391 24.8418 230.24 22.4405L236.987 21.3489C235.876 23.8161 235.318 26.4946 235.353 29.198C235.353 32.6527 236.216 35.1321 237.943 36.6363C239.761 38.2567 242.852 39.0669 247.219 39.0669H260.617V10.4503H266.951V44.0014H246.562ZM242.536 23.6727C243.435 23.6469 244.335 23.709 245.222 23.8584C244.611 23.5489 244.311 22.9244 244.311 21.996C244.291 21.3062 244.423 20.6203 244.697 19.9865C244.972 19.3527 245.383 18.7865 245.901 18.3275C247.126 17.2247 248.908 16.6733 251.245 16.6733C252.192 16.6879 253.137 16.7669 254.073 16.9096L253.508 20.4656C252.724 20.3093 251.926 20.2301 251.127 20.2292C249.583 20.2292 248.813 20.7919 248.813 21.8553C248.813 23.0632 249.918 23.669 252.128 23.6727H254.808V27.2512H242.536V23.6727Z" fill="white"/>
<path d="M318.396 9.71881H324.784V43.4514H318.396V9.71881ZM315.353 4.86221H328.003V0H315.353V4.86221Z" fill="white"/>
</svg>
