<svg width="329" height="41" viewBox="0 0 329 41" fill="none" xmlns="http://www.w3.org/2000/svg">
<path d="M22.874 30.9999H8.48576L5.82154 36.4058H0L15.6541 4.05383L31.3156 36.4058H25.4941L22.874 30.9999ZM11.0543 25.6319H20.2613L15.6541 16.1278L11.0543 25.6319Z" fill="white"/>
<path d="M54.2485 30.9921H49.0157V30.1329H48.9568C47.6714 30.6929 46.2893 30.9775 44.8943 30.9692H39.6615V9.47478H44.8943C46.2756 9.46812 47.6435 9.75541 48.9127 10.3187C48.9483 10.3307 48.9828 10.346 49.0157 10.3644V9.47478H54.2485C55.0995 9.47312 55.9474 9.58038 56.7729 9.79412C56.5079 9.46718 56.2209 9.14784 55.9265 8.84371C54.4908 7.36424 52.7979 6.17769 50.9366 5.34621C49.0302 4.49175 46.9724 4.05673 44.8943 4.06885H34.4729V36.4132H44.8943C46.982 36.4269 49.0497 35.9919 50.966 35.1358C52.8277 34.3125 54.5191 33.1278 55.9486 31.6459C56.243 31.3418 56.5153 31.0225 56.7802 30.6955C55.9522 30.908 55.1017 31.0128 54.2485 31.0073" fill="#04AC8B"/>
<path d="M68.6662 13.9835C67.0467 10.1 64.05 7.00403 60.2908 5.33095C58.3844 4.47649 56.3266 4.04147 54.2485 4.05359H43.8271V36.3979H54.2485C56.3359 36.4079 58.4029 35.9731 60.3203 35.1206C62.1819 34.2972 63.8733 33.1125 65.3028 31.6307C66.7242 30.1403 67.8648 28.3896 68.6662 26.4681C69.4821 24.4949 69.9027 22.3714 69.9027 20.2258C69.9027 18.0801 69.4821 15.9567 68.6662 13.9835ZM63.8603 24.3772C63.3402 25.6583 62.5912 26.8268 61.6524 27.8214C60.7089 28.8183 59.5832 29.6118 58.3405 30.1557C57.8459 30.3758 57.3337 30.5514 56.8097 30.6803C55.9816 30.8928 55.1311 30.9975 54.2779 30.992H49.0452V9.47473H54.2779C55.6583 9.471 57.0251 9.75549 58.2964 10.3111C59.5413 10.863 60.6728 11.6552 61.6303 12.6453C62.5928 13.6338 63.3602 14.8062 63.8897 16.0972C64.4239 17.4103 64.6991 18.8204 64.6991 20.2448C64.6991 21.6692 64.4239 23.0792 63.8897 24.3924" fill="white"/>
<path d="M88.7657 4.05356C90.8515 4.03729 92.9182 4.46432 94.8375 5.30811C96.6973 6.13817 98.388 7.32496 99.82 8.80561L96.1401 12.6073C95.1889 11.5863 94.0448 10.7782 92.7788 10.2328C91.5128 9.68738 90.1519 9.41642 88.7804 9.43669C87.3854 9.42847 86.0033 9.71301 84.7179 10.2731C83.483 10.8078 82.3588 11.5821 81.406 12.554C80.4543 13.5402 79.6881 14.7003 79.1466 15.9755C78.5999 17.2974 78.3181 18.7199 78.3181 20.1573C78.3181 21.5947 78.5999 23.0173 79.1466 24.3391C79.675 25.6111 80.4232 26.7731 81.3545 27.7682C82.3017 28.7471 83.4274 29.5223 84.6663 30.0492C85.9586 30.6123 87.3485 30.8969 88.751 30.8855C90.1174 30.9021 91.473 30.6347 92.7373 30.0991C94.0017 29.5636 95.1488 28.7709 96.1107 27.7682L99.7906 31.5698C98.3605 33.0529 96.6694 34.2401 94.808 35.0673C92.8833 35.9078 90.8149 36.3408 88.7252 36.3408C86.6356 36.3408 84.5672 35.9078 82.6424 35.0673C80.7869 34.2392 79.0972 33.0608 77.6599 31.5926C76.2269 30.1218 75.078 28.3827 74.2744 26.468C73.4586 24.4895 73.0381 22.3611 73.0381 20.2105C73.0381 18.06 73.4586 15.9316 74.2744 13.953C75.8843 10.0601 78.8799 6.95455 82.6424 5.27769C84.5663 4.42089 86.6413 3.98594 88.7363 4.00035" fill="white"/>
<path d="M115.509 13.9616C112.767 13.9616 111.397 12.7757 111.397 10.4038C111.397 9.31521 111.721 8.42139 112.37 7.72232C113.099 6.94334 114.131 6.55386 115.464 6.55386C116.667 6.55386 117.736 6.73112 118.67 7.08565V12.3662H120.168V13.9616H115.509ZM116.707 8.42639C116.318 8.24163 115.831 8.14925 115.247 8.14925C114.682 8.14925 114.235 8.344 113.906 8.73348C113.581 9.11298 113.419 9.60733 113.419 10.2165C113.419 11.6496 114.188 12.3662 115.726 12.3662H116.707V8.42639ZM116.535 5.58763C116.25 5.58763 116.011 5.48527 115.816 5.28054C115.621 5.0808 115.524 4.83612 115.524 4.5465C115.524 4.25689 115.621 4.00971 115.816 3.80498C116.016 3.60025 116.255 3.49789 116.535 3.49789C116.819 3.49789 117.059 3.60025 117.254 3.80498C117.449 4.00472 117.546 4.25189 117.546 4.5465C117.546 4.83113 117.449 5.07581 117.254 5.28054C117.059 5.48527 116.819 5.58763 116.535 5.58763ZM113.988 5.58763C113.704 5.58763 113.464 5.48527 113.269 5.28054C113.074 5.0808 112.977 4.83612 112.977 4.5465C112.977 4.25689 113.074 4.00971 113.269 3.80498C113.469 3.60025 113.709 3.49789 113.988 3.49789C114.278 3.49789 114.522 3.60025 114.722 3.80498C114.917 4.00472 115.014 4.25189 115.014 4.5465C115.014 4.83113 114.917 5.07581 114.722 5.28054C114.522 5.48527 114.278 5.58763 113.988 5.58763Z" fill="white"/>
<path d="M119.943 12.3662H124.459V13.9616H119.943V12.3662Z" fill="white"/>
<path d="M124.287 12.3662H126.437V6.7486H128.459V12.3662H130.549V13.9616H124.287V12.3662ZM126.617 16.2611C126.617 16.5507 126.519 16.7953 126.324 16.9951C126.125 17.1998 125.88 17.3022 125.59 17.3022C125.306 17.3022 125.066 17.2023 124.871 17.0026C124.677 16.8028 124.579 16.5557 124.579 16.2611C124.579 15.9764 124.677 15.7318 124.871 15.527C125.071 15.3223 125.311 15.2199 125.59 15.2199C125.88 15.2199 126.125 15.3198 126.324 15.5195C126.519 15.7243 126.617 15.9714 126.617 16.2611ZM129.148 16.2611C129.148 16.5457 129.051 16.7904 128.856 16.9951C128.656 17.1998 128.417 17.3022 128.137 17.3022C127.852 17.3022 127.613 17.2023 127.418 17.0026C127.223 16.8028 127.126 16.5557 127.126 16.2611C127.126 15.9764 127.223 15.7318 127.418 15.527C127.618 15.3223 127.857 15.2199 128.137 15.2199C128.422 15.2199 128.661 15.3198 128.856 15.5195C129.051 15.7243 129.148 15.9714 129.148 16.2611Z" fill="white"/>
<path d="M130.309 12.3662H134.826V13.9616H130.309V12.3662Z" fill="white"/>
<path d="M134.653 12.3662H139.17V13.9616H134.653V12.3662Z" fill="white"/>
<path d="M139.874 4.38921C140.254 4.38921 140.538 4.40918 140.728 4.44913C140.538 4.35426 140.443 4.15452 140.443 3.84992C140.443 3.37055 140.611 2.97857 140.945 2.67397C141.34 2.31445 141.911 2.13468 142.66 2.13468C142.91 2.13468 143.212 2.15965 143.567 2.20959L143.387 3.36306C143.132 3.31313 142.875 3.28816 142.615 3.28816C142.126 3.28816 141.881 3.46044 141.881 3.80498C141.881 4.19447 142.233 4.38921 142.938 4.38921H143.814V5.54269H139.874V4.38921ZM138.998 12.3662H141.147V6.7486H143.17V13.9616H138.998V12.3662Z" fill="white"/>
<path d="M145.604 3.14585H147.626V12.3662H149.162V13.9616H145.604V3.14585Z" fill="white"/>
<path d="M148.93 12.3662H153.446V13.9616H148.93V12.3662Z" fill="white"/>
<path d="M153.274 12.3662H157.79V13.9616H153.274V12.3662Z" fill="white"/>
<path d="M163.423 13.9616C161.77 13.9616 160.624 13.5621 159.985 12.7632C159.675 13.5621 158.864 13.9616 157.551 13.9616H157.319V12.3662C157.918 12.3662 158.36 12.2189 158.644 11.9243C158.959 11.5997 159.116 11.0504 159.116 10.2764C159.116 9.23782 159.446 8.37396 160.105 7.68486C160.834 6.93086 161.833 6.55386 163.101 6.55386C165.413 6.55386 166.569 7.72981 166.569 10.0817V12.3662H167.857V13.9616H163.423ZM164.591 10.3289C164.591 8.87579 164.045 8.14925 162.951 8.14925C162.387 8.14925 161.937 8.344 161.603 8.73348C161.283 9.11298 161.124 9.60733 161.124 10.2165C161.124 11.6496 161.89 12.3662 163.423 12.3662H164.591V10.3289Z" fill="white"/>
<path d="M167.625 12.3662H172.141V13.9616H167.625V12.3662Z" fill="white"/>
<path d="M171.969 12.3662H176.486V13.9616H171.969V12.3662Z" fill="white"/>
<path d="M179.474 5.4603C179.18 5.4603 178.93 5.36043 178.725 5.16069C178.521 4.95596 178.418 4.7038 178.418 4.40419C178.418 4.11457 178.521 3.8649 178.725 3.65518C178.935 3.45045 179.185 3.34808 179.474 3.34808C179.764 3.34808 180.014 3.45045 180.223 3.65518C180.428 3.8649 180.53 4.11457 180.53 4.40419C180.53 4.69381 180.428 4.94348 180.223 5.1532C180.014 5.35793 179.764 5.4603 179.474 5.4603ZM176.313 12.3662H178.463V6.7486H180.485V13.9616H176.313V12.3662Z" fill="white"/>
<path d="M185.961 11.2127H183.908L181.714 3.31812L183.721 3.04099L185.961 11.2127ZM182.343 13.9616V12.3662H187.084V3.14585H189.107V13.9616H182.343ZM183.264 16.9202C183.629 16.9202 183.898 16.9402 184.073 16.9801C183.903 16.8503 183.819 16.658 183.819 16.4034C183.819 15.9939 183.991 15.6544 184.335 15.3847C184.725 15.0801 185.262 14.9278 185.946 14.9278C186.335 14.9278 186.637 14.9578 186.852 15.0177L186.672 16.0663C186.313 16.0114 186.056 15.9839 185.901 15.9839C185.441 15.9839 185.212 16.1337 185.212 16.4333C185.212 16.7579 185.539 16.9202 186.193 16.9202H187.129V17.9988H183.264V16.9202Z" fill="white"/>
<path d="M191.698 3.14585H193.721V13.9616H191.698V3.14585Z" fill="white"/>
<path d="M204.416 13.9616C202.414 13.9616 200.953 13.5546 200.035 12.7407C199.201 12.0067 198.784 10.9006 198.784 9.42257C198.784 8.54373 198.916 7.73979 199.181 7.01075L201.345 6.65872C200.996 7.42271 200.821 8.2666 200.821 9.19038C200.821 10.3039 201.098 11.1029 201.653 11.5872C202.237 12.1065 203.228 12.3662 204.626 12.3662H206.716V6.7486H208.738V13.9616H204.416ZM205.458 5.58763C205.173 5.58763 204.933 5.48527 204.738 5.28054C204.544 5.0808 204.446 4.83612 204.446 4.5465C204.446 4.25689 204.544 4.00971 204.738 3.80498C204.933 3.60025 205.173 3.49789 205.458 3.49789C205.742 3.49789 205.982 3.60025 206.177 3.80498C206.371 4.00472 206.469 4.25189 206.469 4.5465C206.469 4.83113 206.371 5.07581 206.177 5.28054C205.977 5.48527 205.737 5.58763 205.458 5.58763ZM202.911 5.58763C202.626 5.58763 202.387 5.48527 202.192 5.28054C201.997 5.0808 201.9 4.83612 201.9 4.5465C201.9 4.25689 201.997 4.00971 202.192 3.80498C202.387 3.60025 202.626 3.49789 202.911 3.49789C203.201 3.49789 203.445 3.60025 203.645 3.80498C203.84 4.00472 203.937 4.25189 203.937 4.5465C203.937 4.83113 203.84 5.07581 203.645 5.28054C203.445 5.48527 203.201 5.58763 202.911 5.58763Z" fill="white"/>
<path d="M211.187 3.14585H213.21V13.9616H211.187V3.14585Z" fill="white"/>
<path d="M214.783 17.8564C214.333 17.8564 213.904 17.8065 213.494 17.7066L213.644 16.0963C214.069 16.2161 214.483 16.276 214.888 16.276C215.442 16.276 215.849 16.1262 216.109 15.8266C216.403 15.4871 216.55 14.9228 216.55 14.1339V6.7486H218.573V14.0215C218.573 16.5781 217.309 17.8564 214.783 17.8564Z" fill="white"/>
<path d="M221.015 3.14585H223.037V12.3662H224.572V13.9616H221.015V3.14585Z" fill="white"/>
<path d="M224.34 12.3662H228.857V13.9616H224.34V12.3662Z" fill="white"/>
<path d="M228.684 12.3662H233.201V13.9616H228.684V12.3662Z" fill="white"/>
<path d="M233.029 12.3662H237.545V13.9616H233.029V12.3662Z" fill="white"/>
<path d="M237.373 12.3662H238.137C238.646 12.3662 239.001 12.2364 239.201 11.9767C239.415 11.7021 239.523 11.1977 239.523 10.4637V7.66988H241.545V10.5086C241.545 11.2477 241.607 11.7495 241.732 12.0142C241.877 12.3287 242.167 12.486 242.601 12.486C243.42 12.486 243.829 11.8319 243.829 10.5236V7.05569H245.777V10.9056C245.777 11.5048 245.902 11.8993 246.151 12.0891C246.391 12.2738 246.87 12.3662 247.589 12.3662H247.986C248.061 11.7919 248.099 11.1778 248.099 10.5236C248.099 9.11048 247.949 7.73979 247.649 6.41154L249.627 6.1419C249.956 7.51509 250.121 8.93072 250.121 10.3888C250.121 10.958 250.096 11.6172 250.046 12.3662H251.544V13.9616H247.357C246.523 13.9616 245.904 13.8917 245.5 13.7519C245.065 13.5971 244.738 13.3149 244.519 12.9055C244.154 13.6894 243.383 14.0814 242.204 14.0814C241.111 14.0814 240.431 13.6845 240.167 12.8905C239.852 13.6046 239.171 13.9616 238.122 13.9616H237.373V12.3662ZM246.009 5.58763C245.719 5.58763 245.475 5.48527 245.275 5.28054C245.08 5.0808 244.983 4.83612 244.983 4.5465C244.983 4.25689 245.08 4.00971 245.275 3.80498C245.475 3.60025 245.719 3.49789 246.009 3.49789C246.294 3.49789 246.533 3.60025 246.728 3.80498C246.923 4.00472 247.02 4.25189 247.02 4.5465C247.02 4.83113 246.923 5.07581 246.728 5.28054C246.528 5.48527 246.289 5.58763 246.009 5.58763ZM243.462 5.58763C243.178 5.58763 242.938 5.48527 242.743 5.28054C242.549 5.0808 242.451 4.83612 242.451 4.5465C242.451 4.25689 242.549 4.00971 242.743 3.80498C242.943 3.60025 243.183 3.49789 243.462 3.49789C243.747 3.49789 243.987 3.60025 244.181 3.80498C244.376 4.00472 244.474 4.25189 244.474 4.5465C244.474 4.83113 244.376 5.07581 244.181 5.28054C243.987 5.48527 243.747 5.58763 243.462 5.58763ZM244.721 3.40801C244.461 3.40801 244.239 3.31313 244.054 3.12338C243.874 2.93862 243.785 2.71142 243.785 2.44178C243.785 2.17214 243.874 1.94493 244.054 1.76018C244.239 1.57043 244.461 1.47555 244.721 1.47555C244.99 1.47555 245.215 1.57043 245.395 1.76018C245.58 1.94493 245.672 2.17214 245.672 2.44178C245.672 2.71142 245.58 2.93862 245.395 3.12338C245.215 3.31313 244.99 3.40801 244.721 3.40801Z" fill="white"/>
<path d="M251.32 12.3662H255.836V13.9616H251.32V12.3662Z" fill="white"/>
<path d="M255.664 12.3662H260.18V13.9616H255.664V12.3662Z" fill="white"/>
<path d="M260.008 12.3662H262.158V6.7486H264.18V12.3662H265.543V13.9616H260.008V12.3662ZM261.604 5.58763C261.319 5.58763 261.079 5.48527 260.884 5.28054C260.69 5.0808 260.592 4.83612 260.592 4.5465C260.592 4.25689 260.69 4.00971 260.884 3.80498C261.084 3.60025 261.324 3.49789 261.604 3.49789C261.893 3.49789 262.138 3.60025 262.338 3.80498C262.532 4.00472 262.63 4.25189 262.63 4.5465C262.63 4.83113 262.532 5.07581 262.338 5.28054C262.138 5.48527 261.893 5.58763 261.604 5.58763ZM264.15 5.58763C263.866 5.58763 263.626 5.48527 263.431 5.28054C263.236 5.0808 263.139 4.83612 263.139 4.5465C263.139 4.25689 263.236 4.00971 263.431 3.80498C263.631 3.60025 263.871 3.49789 264.15 3.49789C264.435 3.49789 264.674 3.60025 264.869 3.80498C265.064 4.00472 265.161 4.25189 265.161 4.5465C265.161 4.83113 265.064 5.07581 264.869 5.28054C264.669 5.48527 264.43 5.58763 264.15 5.58763Z" fill="white"/>
<path d="M265.311 12.3662H269.828V13.9616H265.311V12.3662Z" fill="white"/>
<path d="M269.655 12.3662H274.172V13.9616H269.655V12.3662Z" fill="white"/>
<path d="M274 12.3662H274.764C275.273 12.3662 275.628 12.2364 275.827 11.9767C276.042 11.7021 276.149 11.1977 276.149 10.4637V7.66988H278.172V10.5086C278.172 11.2477 278.234 11.7495 278.359 12.0142C278.504 12.3287 278.793 12.486 279.228 12.486C280.047 12.486 280.456 11.8319 280.456 10.5236V7.05569H282.404V10.9056C282.404 11.5048 282.528 11.8993 282.778 12.0891C283.018 12.2738 283.497 12.3662 284.216 12.3662H284.613C284.688 11.7919 284.726 11.1778 284.726 10.5236C284.726 9.11048 284.576 7.73979 284.276 6.41154L286.253 6.1419C286.583 7.51509 286.748 8.93072 286.748 10.3888C286.748 11.6821 286.67 12.873 286.516 13.9616H283.984C283.15 13.9616 282.531 13.8917 282.126 13.7519C281.692 13.5971 281.365 13.3149 281.145 12.9055C280.781 13.6894 280.009 14.0814 278.831 14.0814C277.737 14.0814 277.058 13.6845 276.793 12.8905C276.479 13.6046 275.797 13.9616 274.749 13.9616H274V12.3662Z" fill="white"/>
<path d="M287.864 13.9616V12.3662H292.605V3.14585H294.627V12.3662H296.148V13.9616H287.864ZM291.482 11.2127H289.429L287.235 3.31812L289.242 3.04099L291.482 11.2127Z" fill="white"/>
<path d="M295.916 12.3662H297.818V3.14585H299.841V13.9616H295.916V12.3662Z" fill="white"/>
<path d="M308.769 6.49394C309.153 6.49394 309.44 6.51391 309.63 6.55386C309.435 6.45399 309.338 6.25425 309.338 5.95465C309.338 5.47528 309.508 5.0808 309.847 4.77121C310.242 4.41667 310.814 4.23941 311.563 4.23941C311.807 4.23941 312.109 4.26438 312.469 4.31431L312.282 5.4603C312.027 5.41036 311.772 5.3854 311.518 5.3854C311.023 5.3854 310.776 5.56017 310.776 5.90971C310.776 6.29919 311.131 6.49394 311.84 6.49394H312.709V7.63992H308.769V6.49394ZM310.536 13.9616C308.534 13.9616 307.074 13.5546 306.155 12.7407C305.321 12.0067 304.904 10.9006 304.904 9.42257C304.904 8.54373 305.036 7.73979 305.301 7.01075L307.466 6.65872C307.116 7.42271 306.941 8.2666 306.941 9.19038C306.941 10.3039 307.218 11.1029 307.773 11.5872C308.357 12.1065 309.348 12.3662 310.746 12.3662H313.952V3.14585H315.982V13.9616H310.536Z" fill="white"/>
<path d="M317.772 12.3662H322.326C322.236 10.0942 321.03 8.66357 318.708 8.07435L319.195 6.38158C320.913 6.83598 322.181 7.56502 323 8.5687C323.869 9.63729 324.303 11.0979 324.303 12.9504V13.9616H317.772V12.3662Z" fill="white"/>
<path d="M325.779 3.14585H327.801V13.9616H325.779V3.14585ZM324.168 1.22838L325.779 0.0299605C326.208 0.429434 326.69 0.62917 327.224 0.62917C327.779 0.62917 328.311 0.419447 328.82 0V1.47555C328.34 1.86504 327.776 2.05978 327.127 2.05978C326.573 2.05978 326.118 1.895 325.764 1.56544L324.873 2.19461L324.168 1.22838Z" fill="white"/>
<path d="M117.825 36.2632L116.973 33.6099H112.632L111.753 36.2632H110.82L114.363 25.8457H115.331L118.86 36.2632H117.825ZM115.229 28.3107C115.042 27.7478 114.904 27.2855 114.813 26.9237H114.799C114.69 27.3006 114.549 27.7529 114.377 28.2805L112.885 32.8033H116.707L115.229 28.3107Z" fill="white"/>
<path d="M127.937 30.9716C127.937 32.7053 127.437 34.042 126.438 34.9818C125.502 35.8662 124.235 36.3085 122.636 36.3085C122.331 36.3085 121.922 36.2984 121.409 36.2783C120.964 36.2632 120.637 36.2582 120.428 36.2632V25.8457L123.065 25.793C126.313 25.793 127.937 27.5192 127.937 30.9716ZM127.003 31.0319C127.003 28.077 125.654 26.5995 122.956 26.5995C122.674 26.5995 122.129 26.6146 121.32 26.6448V35.3813C121.811 35.4567 122.29 35.4943 122.758 35.4943C124.066 35.4943 125.089 35.135 125.825 34.4164C126.61 33.6475 127.003 32.5194 127.003 31.0319Z" fill="white"/>
<path d="M137.409 30.9716C137.409 32.7053 136.909 34.042 135.909 34.9818C134.974 35.8662 133.706 36.3085 132.107 36.3085C131.803 36.3085 131.394 36.2984 130.881 36.2783C130.435 36.2632 130.108 36.2582 129.899 36.2632V25.8457L132.536 25.793C135.785 25.793 137.409 27.5192 137.409 30.9716ZM136.475 31.0319C136.475 28.077 135.126 26.5995 132.427 26.5995C132.146 26.5995 131.601 26.6146 130.792 26.6448V35.3813C131.283 35.4567 131.762 35.4943 132.23 35.4943C133.538 35.4943 134.56 35.135 135.296 34.4164C136.082 33.6475 136.475 32.5194 136.475 31.0319Z" fill="white"/>
<path d="M145.967 35.7657C145.131 36.1677 144.227 36.3688 143.255 36.3688C141.87 36.3688 140.816 35.9165 140.093 35.0119C139.394 34.1325 139.044 32.8812 139.044 31.258C139.044 29.5997 139.396 28.2906 140.1 27.3307C140.886 26.2654 142.047 25.7327 143.582 25.7327C144.363 25.7327 145.111 25.8508 145.824 26.087L145.66 26.9991C144.92 26.7126 144.161 26.5694 143.385 26.5694C142.244 26.5694 141.379 27.0192 140.788 27.9187C140.266 28.7127 140.005 29.7705 140.005 31.0922C140.005 34.037 141.177 35.5094 143.521 35.5094C144.325 35.5094 145.079 35.3134 145.783 34.9215L145.967 35.7657Z" fill="white"/>
<path d="M154.662 25.891C154.33 25.7754 153.953 25.7176 153.531 25.7176C152.441 25.7176 151.895 26.489 151.895 28.0318V28.5896H154.035V29.366H151.895V36.2632H151.016V29.366H149.429V28.5896H151.016V28.0695C151.016 25.9689 151.877 24.9186 153.599 24.9186C153.985 24.9186 154.367 24.9638 154.744 25.0543L154.662 25.891Z" fill="white"/>
<path d="M160.985 32.3133C160.985 33.4691 160.695 34.4265 160.113 35.1853C159.504 35.9843 158.705 36.3838 157.715 36.3838C156.77 36.3838 156.038 36.0647 155.52 35.4265C154.975 34.7531 154.703 33.7606 154.703 32.449C154.703 31.3284 154.984 30.3962 155.548 29.6524C156.152 28.8634 156.954 28.469 157.953 28.469C158.848 28.469 159.554 28.7529 160.072 29.3208C160.681 29.9791 160.985 30.9766 160.985 32.3133ZM160.072 32.3586C160.072 31.3786 159.886 30.6198 159.514 30.0821C159.132 29.5293 158.58 29.2529 157.858 29.2529C157.235 29.2529 156.718 29.5042 156.304 30.0067C155.841 30.5746 155.609 31.3635 155.609 32.3736C155.609 33.3938 155.807 34.1827 156.202 34.7406C156.597 35.3034 157.154 35.5848 157.871 35.5848C158.494 35.5848 159.005 35.3285 159.405 34.8159C159.85 34.238 160.072 33.4189 160.072 32.3586Z" fill="white"/>
<path d="M166.035 29.4263C164.481 29.1499 163.704 30.4087 163.704 33.2028V36.2632H162.825V28.5896H163.718C163.718 29.273 163.657 29.9414 163.534 30.5947L163.568 30.6097C163.94 29.0067 164.776 28.2981 166.076 28.484L166.035 29.4263Z" fill="white"/>
<path d="M177.993 30.9716C177.993 32.7053 177.494 34.042 176.494 34.9818C175.559 35.8662 174.291 36.3085 172.692 36.3085C172.388 36.3085 171.979 36.2984 171.466 36.2783C171.02 36.2632 170.693 36.2582 170.484 36.2632V25.8457L173.121 25.793C176.369 25.793 177.993 27.5192 177.993 30.9716ZM177.06 31.0319C177.06 28.077 175.711 26.5995 173.012 26.5995C172.731 26.5995 172.186 26.6146 171.377 26.6448V35.3813C171.868 35.4567 172.347 35.4943 172.815 35.4943C174.123 35.4943 175.145 35.135 175.881 34.4164C176.667 33.6475 177.06 32.5194 177.06 31.0319Z" fill="white"/>
<path d="M185.087 31.5369C185.087 31.8083 185.078 32.0344 185.06 32.2153H180.358C180.29 34.4415 181.085 35.5547 182.743 35.5547C183.452 35.5547 184.103 35.4039 184.699 35.1024L184.869 35.924C184.178 36.2306 183.406 36.3838 182.552 36.3838C180.467 36.3838 179.424 35.0722 179.424 32.449C179.424 31.2831 179.688 30.3334 180.215 29.5997C180.765 28.8459 181.5 28.469 182.423 28.469C183.318 28.469 183.999 28.7755 184.467 29.3886C184.88 29.9313 185.087 30.6474 185.087 31.5369ZM184.153 31.4766C184.167 30.7831 184.015 30.2379 183.697 29.8409C183.379 29.4388 182.936 29.2378 182.368 29.2378C181.846 29.2378 181.412 29.4313 181.067 29.8183C180.712 30.2153 180.49 30.768 180.399 31.4766H184.153Z" fill="white"/>
<path d="M189.646 36.2632H188.685L186.075 28.5896H187.077L188.807 33.9792C188.976 34.5169 189.103 34.9541 189.189 35.2908H189.203C189.307 34.9039 189.432 34.4817 189.577 34.0244L191.349 28.5896H192.31L189.646 36.2632Z" fill="white"/>
<path d="M198.715 31.5369C198.715 31.8083 198.706 32.0344 198.688 32.2153H193.986C193.918 34.4415 194.713 35.5547 196.371 35.5547C197.08 35.5547 197.732 35.4039 198.327 35.1024L198.497 35.924C197.807 36.2306 197.034 36.3838 196.18 36.3838C194.095 36.3838 193.053 35.0722 193.053 32.449C193.053 31.2831 193.316 30.3334 193.843 29.5997C194.393 28.8459 195.129 28.469 196.051 28.469C196.946 28.469 197.627 28.7755 198.095 29.3886C198.509 29.9313 198.715 30.6474 198.715 31.5369ZM197.782 31.4766C197.795 30.7831 197.643 30.2379 197.325 29.8409C197.007 29.4388 196.564 29.2378 195.996 29.2378C195.474 29.2378 195.04 29.4313 194.695 29.8183C194.341 30.2153 194.118 30.768 194.027 31.4766H197.782Z" fill="white"/>
<path d="M200.712 36.2632V24.994H201.591V36.2632H200.712Z" fill="white"/>
<path d="M209.843 32.3133C209.843 33.4691 209.552 34.4265 208.97 35.1853C208.362 35.9843 207.562 36.3838 206.572 36.3838C205.627 36.3838 204.896 36.0647 204.378 35.4265C203.833 34.7531 203.56 33.7606 203.56 32.449C203.56 31.3284 203.842 30.3962 204.405 29.6524C205.009 28.8634 205.811 28.469 206.81 28.469C207.705 28.469 208.412 28.7529 208.93 29.3208C209.538 29.9791 209.843 30.9766 209.843 32.3133ZM208.93 32.3586C208.93 31.3786 208.743 30.6198 208.371 30.0821C207.989 29.5293 207.437 29.2529 206.715 29.2529C206.093 29.2529 205.575 29.5042 205.161 30.0067C204.698 30.5746 204.466 31.3635 204.466 32.3736C204.466 33.3938 204.664 34.1827 205.059 34.7406C205.454 35.3034 206.011 35.5848 206.729 35.5848C207.351 35.5848 207.862 35.3285 208.262 34.8159C208.707 34.238 208.93 33.4189 208.93 32.3586Z" fill="white"/>
<path d="M217.488 32.0796C217.488 33.4465 217.168 34.5044 216.527 35.2531C215.905 35.9768 215.053 36.3386 213.972 36.3386C213.45 36.3386 212.989 36.3085 212.589 36.2481V40.1377H211.71V28.5896H212.602C212.602 29.3685 212.562 29.9565 212.48 30.3535L212.507 30.3685C212.934 29.1022 213.738 28.469 214.919 28.469C216.632 28.469 217.488 29.6725 217.488 32.0796ZM216.568 32.1701C216.568 30.2253 215.973 29.2529 214.783 29.2529C214.097 29.2529 213.545 29.6323 213.127 30.3911C212.768 31.0394 212.589 31.7605 212.589 32.5545V35.3511C212.984 35.5069 213.468 35.5848 214.04 35.5848C215.726 35.5848 216.568 34.4466 216.568 32.1701Z" fill="white"/>
<path d="M228.2 36.2632V31.2957C228.2 30.6223 228.111 30.1273 227.934 29.8107C227.725 29.4388 227.369 29.2529 226.864 29.2529C226.265 29.2529 225.754 29.5519 225.331 30.1499C224.881 30.7881 224.657 31.6173 224.657 32.6375V36.2632H223.778V31.2731C223.778 30.6349 223.698 30.1625 223.539 29.8559C223.33 29.4539 222.964 29.2529 222.442 29.2529C221.824 29.2529 221.306 29.567 220.888 30.1952C220.461 30.8384 220.248 31.6525 220.248 32.6375V36.2632H219.369V28.5896H220.261C220.261 29.2881 220.221 29.8861 220.139 30.3836L220.166 30.3987C220.593 29.1122 221.42 28.469 222.646 28.469C223.364 28.469 223.893 28.7152 224.234 29.2077C224.47 29.5494 224.588 29.9364 224.588 30.3685C224.743 29.8962 224.997 29.4891 225.352 29.1474C225.824 28.6951 226.383 28.469 227.028 28.469C228.395 28.469 229.079 29.2906 229.079 30.9339V36.2632H228.2Z" fill="white"/>
<path d="M236.697 31.5369C236.697 31.8083 236.688 32.0344 236.67 32.2153H231.968C231.9 34.4415 232.695 35.5547 234.353 35.5547C235.062 35.5547 235.714 35.4039 236.309 35.1024L236.479 35.924C235.789 36.2306 235.016 36.3838 234.162 36.3838C232.077 36.3838 231.035 35.0722 231.035 32.449C231.035 31.2831 231.298 30.3334 231.825 29.5997C232.375 28.8459 233.111 28.469 234.033 28.469C234.928 28.469 235.609 28.7755 236.077 29.3886C236.49 29.9313 236.697 30.6474 236.697 31.5369ZM235.764 31.4766C235.777 30.7831 235.625 30.2379 235.307 29.8409C234.989 29.4388 234.546 29.2378 233.978 29.2378C233.456 29.2378 233.022 29.4313 232.677 29.8183C232.322 30.2153 232.1 30.768 232.009 31.4766H235.764Z" fill="white"/>
<path d="M243.273 36.2632V31.2957C243.273 29.9338 242.803 29.2529 241.862 29.2529C241.208 29.2529 240.672 29.5695 240.254 30.2027C239.836 30.8309 239.627 31.6324 239.627 32.6073V36.2632H238.748V28.5896H239.641C239.641 29.3032 239.6 29.9012 239.518 30.3836L239.545 30.3987C239.972 29.1122 240.808 28.469 242.053 28.469C243.452 28.469 244.152 29.2856 244.152 30.9188V36.2632H243.273Z" fill="white"/>
<path d="M249.978 36.218C249.56 36.3185 249.117 36.3688 248.649 36.3688C247.995 36.3688 247.538 36.1929 247.28 35.8411C247.039 35.5094 246.918 34.9441 246.918 34.1451V29.366H245.331V28.5896H246.918V25.9965L247.784 25.7327V28.5896H249.923V29.366H247.784V33.6702C247.784 34.3988 247.861 34.8888 248.015 35.1401C248.165 35.3863 248.456 35.5094 248.888 35.5094C249.247 35.5094 249.569 35.4667 249.855 35.3813L249.978 36.218Z" fill="white"/>
<path d="M260.84 35.7657C260.004 36.1677 259.1 36.3688 258.128 36.3688C256.742 36.3688 255.688 35.9165 254.966 35.0119C254.266 34.1325 253.916 32.8812 253.916 31.258C253.916 29.5997 254.269 28.2906 254.973 27.3307C255.759 26.2654 256.919 25.7327 258.455 25.7327C259.236 25.7327 259.983 25.8508 260.697 26.087L260.533 26.9991C259.793 26.7126 259.034 26.5694 258.257 26.5694C257.117 26.5694 256.251 27.0192 255.661 27.9187C255.138 28.7127 254.877 29.7705 254.877 31.0922C254.877 34.037 256.049 35.5094 258.393 35.5094C259.197 35.5094 259.952 35.3134 260.656 34.9215L260.84 35.7657Z" fill="white"/>
<path d="M268.594 32.3133C268.594 33.4691 268.303 34.4265 267.722 35.1853C267.113 35.9843 266.314 36.3838 265.323 36.3838C264.378 36.3838 263.647 36.0647 263.129 35.4265C262.584 34.7531 262.311 33.7606 262.311 32.449C262.311 31.3284 262.593 30.3962 263.156 29.6524C263.761 28.8634 264.562 28.469 265.562 28.469C266.457 28.469 267.163 28.7529 267.681 29.3208C268.29 29.9791 268.594 30.9766 268.594 32.3133ZM267.681 32.3586C267.681 31.3786 267.495 30.6198 267.122 30.0821C266.741 29.5293 266.189 29.2529 265.466 29.2529C264.844 29.2529 264.326 29.5042 263.913 30.0067C263.449 30.5746 263.218 31.3635 263.218 32.3736C263.218 33.3938 263.415 34.1827 263.811 34.7406C264.206 35.3034 264.762 35.5848 265.48 35.5848C266.102 35.5848 266.613 35.3285 267.013 34.8159C267.458 34.238 267.681 33.4189 267.681 32.3586Z" fill="white"/>
<path d="M274.958 36.2632V31.2957C274.958 29.9338 274.488 29.2529 273.548 29.2529C272.894 29.2529 272.358 29.5695 271.94 30.2027C271.522 30.8309 271.313 31.6324 271.313 32.6073V36.2632H270.434V28.5896H271.327C271.327 29.3032 271.286 29.9012 271.204 30.3836L271.231 30.3987C271.658 29.1122 272.494 28.469 273.739 28.469C275.138 28.469 275.838 29.2856 275.838 30.9188V36.2632H274.958Z" fill="white"/>
<path d="M282.325 34.0094C282.325 34.6878 282.075 35.2481 281.575 35.6903C281.048 36.1527 280.348 36.3838 279.476 36.3838C278.863 36.3838 278.347 36.3185 277.929 36.1878L278.059 35.2607C278.527 35.4567 279.051 35.5547 279.633 35.5547C280.155 35.5547 280.582 35.429 280.914 35.1778C281.25 34.9164 281.418 34.5722 281.418 34.1451C281.418 33.7079 281.234 33.3762 280.866 33.15C280.703 33.0495 280.301 32.8963 279.66 32.6902C279.101 32.5143 278.699 32.3133 278.454 32.0872C278.086 31.7555 277.902 31.2806 277.902 30.6625C277.902 30.0042 278.125 29.4791 278.57 29.0871C279.038 28.675 279.69 28.469 280.526 28.469C281.016 28.469 281.482 28.5242 281.923 28.6348L281.807 29.4715C281.33 29.3157 280.862 29.2378 280.403 29.2378C279.331 29.2378 278.795 29.675 278.795 30.5494C278.795 30.9866 278.979 31.3208 279.347 31.552C279.519 31.6625 279.924 31.8183 280.56 32.0193C281.123 32.2003 281.527 32.3988 281.773 32.6148C282.141 32.9415 282.325 33.4063 282.325 34.0094Z" fill="white"/>
<path d="M288.941 36.2632C288.941 35.5496 288.982 34.9516 289.064 34.4692L289.036 34.4541C288.609 35.7406 287.771 36.3838 286.522 36.3838C285.127 36.3838 284.43 35.5672 284.43 33.934V28.5896H285.309V33.5646C285.309 34.2481 285.407 34.7481 285.602 35.0647C285.82 35.4215 286.193 35.5999 286.72 35.5999C287.374 35.5999 287.91 35.2833 288.328 34.6501C288.746 34.027 288.955 33.2279 288.955 32.253V28.5896H289.834V36.2632H288.941Z" fill="white"/>
<path d="M292.58 36.2632V24.994H293.459V36.2632H292.58Z" fill="white"/>
<path d="M299.339 36.218C298.921 36.3185 298.479 36.3688 298.011 36.3688C297.357 36.3688 296.9 36.1929 296.641 35.8411C296.4 35.5094 296.28 34.9441 296.28 34.1451V29.366H294.692V28.5896H296.28V25.9965L297.145 25.7327V28.5896H299.285V29.366H297.145V33.6702C297.145 34.3988 297.222 34.8888 297.377 35.1401C297.527 35.3863 297.818 35.5094 298.249 35.5094C298.608 35.5094 298.931 35.4667 299.217 35.3813L299.339 36.218Z" fill="white"/>
<path d="M304.907 36.2632C304.907 35.4994 304.934 34.9391 304.988 34.5823L304.961 34.5672C304.784 35.0898 304.484 35.517 304.062 35.8486C303.607 36.2054 303.087 36.3838 302.501 36.3838C301.956 36.3838 301.509 36.2079 301.159 35.8562C300.8 35.4893 300.62 35.0019 300.62 34.3938C300.62 33.6099 300.982 32.9867 301.704 32.5244C302.458 32.042 303.521 31.8007 304.893 31.8007V31.3862C304.893 30.6424 304.775 30.1072 304.539 29.7806C304.289 29.4288 303.862 29.2529 303.258 29.2529C302.576 29.2529 301.883 29.4439 301.179 29.8258L300.968 29.0192C301.718 28.6524 302.524 28.469 303.387 28.469C304.977 28.469 305.772 29.3584 305.772 31.1374V33.8888C305.772 34.5471 305.781 35.3386 305.799 36.2632H304.907ZM304.893 32.5395C302.64 32.5395 301.513 33.1073 301.513 34.243C301.513 34.635 301.622 34.9541 301.84 35.2004C302.067 35.4567 302.363 35.5848 302.726 35.5848C303.348 35.5848 303.871 35.2833 304.293 34.6802C304.693 34.1174 304.893 33.4666 304.893 32.7279V32.5395Z" fill="white"/>
<path d="M312.9 36.2632V31.2957C312.9 29.9338 312.429 29.2529 311.489 29.2529C310.835 29.2529 310.299 29.5695 309.881 30.2027C309.463 30.8309 309.254 31.6324 309.254 32.6073V36.2632H308.375V28.5896H309.268C309.268 29.3032 309.227 29.9012 309.145 30.3836L309.172 30.3987C309.599 29.1122 310.435 28.469 311.68 28.469C313.079 28.469 313.779 29.2856 313.779 30.9188V36.2632H312.9Z" fill="white"/>
<path d="M320.872 35.9089C320.245 36.2054 319.523 36.3537 318.705 36.3537C316.725 36.3537 315.734 35.135 315.734 32.6978C315.734 31.4012 316.014 30.3836 316.572 29.6449C317.145 28.881 317.949 28.4991 318.985 28.4991C319.698 28.4991 320.313 28.6172 320.831 28.8534L320.634 29.675C320.025 29.4137 319.43 29.2831 318.848 29.2831C318.162 29.2831 317.624 29.5846 317.233 30.1876C316.856 30.7706 316.668 31.5394 316.668 32.4942C316.668 34.5245 317.408 35.5396 318.889 35.5396C319.525 35.5396 320.125 35.3989 320.688 35.1175L320.872 35.9089Z" fill="white"/>
<path d="M324.879 37.0472C324.479 38.2331 324.05 39.0623 323.591 39.5347C323.128 40.0171 322.514 40.2583 321.751 40.2583C321.547 40.2583 321.315 40.2282 321.056 40.1679L321.151 39.2709C321.374 39.3563 321.64 39.399 321.949 39.399C322.78 39.399 323.455 38.6678 323.972 37.2055L324.306 36.2632L321.628 28.5896H322.664L324.225 33.3159C324.484 34.1601 324.661 34.7506 324.756 35.0873H324.77C324.852 34.7355 325.083 33.9591 325.465 32.7581L326.807 28.5896H327.768L324.879 37.0472Z" fill="white"/>
</svg>
